<svg width="373" height="301" viewBox="0 0 373 301" fill="none" xmlns="http://www.w3.org/2000/svg">
<path d="M205.79 112.42C185.9 102.48 158.27 97.0002 128 97.0002C97.73 97.0002 70.1 102.48 50.21 112.42C31 122 20 135.35 20 149V197C20 210.65 31 224 50.21 233.58C70.1 243.52 97.73 249 128 249C158.27 249 185.9 243.52 205.79 233.58C225 224 236 210.65 236 197V149C236 135.35 225 122 205.79 112.42ZM128 105C189.77 105 228 127.84 228 149C228 170.16 189.77 193 128 193C66.23 193 28 170.16 28 149C28 127.84 66.23 105 128 105ZM124 201V241C102 240.65 83.06 237.35 68 232.29V192.65C84.23 197.75 103.44 200.62 124 201ZM132 201C152.56 200.67 171.77 197.8 188 192.7V232.29C172.94 237.35 154.05 240.65 132 241V201ZM28 197V168.92C33.15 175.11 40.67 180.81 50.21 185.58C53.29 187.12 56.57 188.53 60 189.86V229.24C39.49 220.67 28 208.59 28 197ZM228 197C228 208.59 216.51 220.67 196 229.24V189.86C199.43 188.53 202.71 187.12 205.79 185.58C215.33 180.81 222.85 175.11 228 168.92V197Z" fill="#01A8F6"/>
<path d="M52.72 147.48C52.72 145.8 53.056 144.304 53.728 142.992C54.416 141.68 55.392 140.664 56.656 139.944C57.92 139.208 59.408 138.84 61.12 138.84C62.592 138.84 63.904 139.12 65.056 139.68C66.224 140.224 67.168 141 67.888 142.008C68.624 143.016 69.112 144.192 69.352 145.536H63.736C63.48 144.976 63.112 144.544 62.632 144.24C62.168 143.92 61.632 143.76 61.024 143.76C60.128 143.76 59.416 144.096 58.888 144.768C58.376 145.44 58.12 146.344 58.12 147.48C58.12 148.616 58.376 149.52 58.888 150.192C59.416 150.864 60.128 151.2 61.024 151.2C61.632 151.2 62.168 151.048 62.632 150.744C63.112 150.424 63.48 149.984 63.736 149.424H69.352C69.112 150.768 68.624 151.944 67.888 152.952C67.168 153.96 66.224 154.744 65.056 155.304C63.904 155.848 62.592 156.12 61.12 156.12C59.408 156.12 57.92 155.76 56.656 155.04C55.392 154.304 54.416 153.28 53.728 151.968C53.056 150.656 52.72 149.16 52.72 147.48ZM77.7023 156.168C76.3423 156.168 75.1183 155.888 74.0303 155.328C72.9423 154.768 72.0863 153.968 71.4623 152.928C70.8543 151.872 70.5503 150.64 70.5503 149.232C70.5503 147.824 70.8543 146.6 71.4623 145.56C72.0863 144.504 72.9423 143.696 74.0303 143.136C75.1183 142.576 76.3423 142.296 77.7023 142.296C79.0623 142.296 80.2863 142.576 81.3743 143.136C82.4623 143.696 83.3103 144.504 83.9183 145.56C84.5423 146.6 84.8543 147.824 84.8543 149.232C84.8543 150.64 84.5423 151.872 83.9183 152.928C83.3103 153.968 82.4623 154.768 81.3743 155.328C80.2863 155.888 79.0623 156.168 77.7023 156.168ZM77.7023 151.56C78.1983 151.56 78.6143 151.368 78.9503 150.984C79.2863 150.584 79.4543 150 79.4543 149.232C79.4543 148.464 79.2863 147.888 78.9503 147.504C78.6143 147.104 78.1983 146.904 77.7023 146.904C77.2063 146.904 76.7903 147.104 76.4543 147.504C76.1183 147.888 75.9503 148.464 75.9503 149.232C75.9503 150 76.1103 150.584 76.4303 150.984C76.7663 151.368 77.1903 151.56 77.7023 151.56ZM96.9921 145.608V150H85.8081V145.608H96.9921ZM112.356 139.008V143.232H105.684V145.584H110.484V149.592H105.684V156H100.356V139.008H112.356ZM128.489 142.464V156H123.161V153.936C122.745 154.576 122.185 155.096 121.481 155.496C120.793 155.896 119.969 156.096 119.009 156.096C117.457 156.096 116.241 155.576 115.361 154.536C114.497 153.496 114.065 152.088 114.065 150.312V142.464H119.369V149.64C119.369 150.28 119.537 150.792 119.873 151.176C120.225 151.544 120.689 151.728 121.265 151.728C121.857 151.728 122.321 151.544 122.657 151.176C122.993 150.792 123.161 150.28 123.161 149.64V142.464H128.489ZM140.375 142.368C141.927 142.368 143.135 142.888 143.999 143.928C144.879 144.968 145.319 146.376 145.319 148.152V156H140.015V148.824C140.015 148.184 139.839 147.68 139.487 147.312C139.151 146.928 138.695 146.736 138.119 146.736C137.527 146.736 137.063 146.928 136.727 147.312C136.391 147.68 136.223 148.184 136.223 148.824V156H130.895V142.464H136.223V144.528C136.639 143.888 137.191 143.368 137.879 142.968C138.583 142.568 139.415 142.368 140.375 142.368ZM146.91 149.232C146.91 147.808 147.15 146.576 147.63 145.536C148.126 144.48 148.798 143.68 149.646 143.136C150.494 142.576 151.446 142.296 152.502 142.296C153.382 142.296 154.134 142.48 154.758 142.848C155.398 143.2 155.886 143.688 156.222 144.312V138.24H161.55V156H156.222V154.152C155.886 154.776 155.398 155.272 154.758 155.64C154.134 155.992 153.382 156.168 152.502 156.168C151.446 156.168 150.494 155.896 149.646 155.352C148.798 154.792 148.126 153.992 147.63 152.952C147.15 151.896 146.91 150.656 146.91 149.232ZM156.246 149.232C156.246 148.512 156.062 147.952 155.694 147.552C155.326 147.152 154.854 146.952 154.278 146.952C153.702 146.952 153.23 147.152 152.862 147.552C152.494 147.952 152.31 148.512 152.31 149.232C152.31 149.952 152.494 150.512 152.862 150.912C153.23 151.312 153.702 151.512 154.278 151.512C154.854 151.512 155.326 151.312 155.694 150.912C156.062 150.512 156.246 149.952 156.246 149.232ZM166.63 141.384C165.702 141.384 164.958 141.136 164.398 140.64C163.838 140.144 163.558 139.52 163.558 138.768C163.558 138 163.838 137.368 164.398 136.872C164.958 136.36 165.702 136.104 166.63 136.104C167.542 136.104 168.278 136.36 168.838 136.872C169.398 137.368 169.678 138 169.678 138.768C169.678 139.52 169.398 140.144 168.838 140.64C168.278 141.136 167.542 141.384 166.63 141.384ZM169.27 142.464V156H163.942V142.464H169.27ZM181.157 142.368C182.709 142.368 183.917 142.888 184.781 143.928C185.661 144.968 186.101 146.376 186.101 148.152V156H180.797V148.824C180.797 148.184 180.621 147.68 180.269 147.312C179.933 146.928 179.477 146.736 178.901 146.736C178.309 146.736 177.845 146.928 177.509 147.312C177.173 147.68 177.005 148.184 177.005 148.824V156H171.677V142.464H177.005V144.528C177.421 143.888 177.973 143.368 178.661 142.968C179.365 142.568 180.197 142.368 181.157 142.368ZM193.283 142.296C194.163 142.296 194.923 142.48 195.563 142.848C196.203 143.2 196.691 143.688 197.027 144.312V142.464H202.331V155.76C202.331 157.024 202.099 158.176 201.635 159.216C201.171 160.256 200.419 161.088 199.379 161.712C198.355 162.336 197.035 162.648 195.419 162.648C193.243 162.648 191.515 162.136 190.235 161.112C188.971 160.104 188.251 158.728 188.075 156.984H193.307C193.451 157.688 194.027 158.04 195.035 158.04C195.659 158.04 196.147 157.88 196.499 157.56C196.851 157.24 197.027 156.64 197.027 155.76V154.152C196.691 154.776 196.203 155.272 195.563 155.64C194.923 155.992 194.163 156.168 193.283 156.168C192.227 156.168 191.275 155.896 190.427 155.352C189.579 154.792 188.907 153.992 188.411 152.952C187.931 151.896 187.691 150.656 187.691 149.232C187.691 147.808 187.931 146.576 188.411 145.536C188.907 144.48 189.579 143.68 190.427 143.136C191.275 142.576 192.227 142.296 193.283 142.296ZM197.027 149.232C197.027 148.512 196.843 147.952 196.475 147.552C196.107 147.152 195.635 146.952 195.059 146.952C194.483 146.952 194.011 147.152 193.643 147.552C193.275 147.952 193.091 148.512 193.091 149.232C193.091 149.952 193.275 150.512 193.643 150.912C194.011 151.312 194.483 151.512 195.059 151.512C195.635 151.512 196.107 151.312 196.475 150.912C196.843 150.512 197.027 149.952 197.027 149.232Z" fill="#01A8F6"/>
<path d="M306.557 10.7736C301.851 10.1032 297.051 10.8457 292.767 12.907C288.483 14.9683 284.908 18.2555 282.495 22.3516C280.081 26.4478 278.939 31.1684 279.213 35.9146C279.486 40.6609 281.163 45.219 284.031 49.0108L323.154 100.859L263.365 75.4784C257.505 72.9905 250.898 72.9322 244.995 75.3163C239.093 77.7004 234.379 82.3316 231.891 88.1911C229.403 94.0506 229.345 100.658 231.729 106.561C234.113 112.463 238.744 117.177 244.604 119.665L283.818 136.344L272.298 146.378C268.027 150.033 265.174 155.072 264.238 160.615C263.301 166.158 264.34 171.854 267.173 176.709C270.006 181.564 274.454 185.271 279.741 187.183C285.027 189.095 290.817 189.09 296.1 187.17L296.038 187.819C295.78 190.961 296.148 194.122 297.121 197.121C298.093 200.12 299.65 202.896 301.702 205.29C302.77 206.537 303.96 207.675 305.254 208.686L310.912 213.107C326.795 225.516 346.958 231.108 366.964 228.652C386.97 226.195 405.181 215.892 417.591 200.008L417.954 199.543C443.309 166.587 436.957 118.68 403.789 92.7673L401.157 90.711C391.536 83.207 379.578 79.3328 367.384 79.7687L322.405 20.084C320.512 17.5599 318.136 15.437 315.415 13.8387C312.695 12.2405 309.684 11.1986 306.557 10.7736ZM239.142 103.558C237.957 100.624 237.669 97.4046 238.314 94.3067C238.958 91.2088 240.507 88.3716 242.764 86.1538C245.021 83.9361 247.885 82.4373 250.994 81.8471C254.102 81.2569 257.316 81.6017 260.229 82.838L317.808 107.278C315.07 109.856 312.976 113.041 311.695 116.577C310.414 120.112 309.982 123.9 310.433 127.633C308.889 127.194 307.305 126.909 305.705 126.781C300.452 126.358 295.208 127.694 290.797 130.578L247.732 112.299C245.793 111.483 244.035 110.29 242.561 108.789C241.087 107.289 239.925 105.511 239.142 103.558ZM275.688 175.029C274.323 173.427 273.287 171.572 272.641 169.569C271.994 167.567 271.748 165.457 271.918 163.359C272.088 161.262 272.67 159.218 273.631 157.346C274.592 155.474 275.913 153.81 277.518 152.448L293.451 138.552C295.045 137.146 296.902 136.072 298.916 135.392C300.93 134.712 303.059 134.44 305.179 134.591C307.299 134.743 309.367 135.316 311.263 136.276C313.159 137.236 314.845 138.564 316.222 140.183C317.599 141.802 318.64 143.679 319.284 145.704C319.928 147.73 320.161 149.863 319.971 151.98C319.782 154.097 319.172 156.155 318.178 158.034C317.184 159.912 315.825 161.574 314.182 162.922L298.23 176.842C295.001 179.587 290.814 180.938 286.589 180.599C282.364 180.261 278.447 178.259 275.696 175.035L275.688 175.029ZM307.776 200.099C305.03 196.887 303.665 192.72 303.981 188.506C304.296 184.292 306.266 180.374 309.46 177.607L317.26 170.872C318.859 169.509 320.712 168.475 322.711 167.828C324.71 167.182 326.817 166.935 328.911 167.103C331.006 167.27 333.047 167.849 334.918 168.805C336.789 169.761 338.453 171.077 339.816 172.676C341.178 174.276 342.212 176.128 342.859 178.127C343.506 180.126 343.753 182.233 343.585 184.328C343.418 186.422 342.839 188.463 341.883 190.334C340.926 192.205 339.611 193.869 338.012 195.232L330.279 201.881C327.05 204.633 322.859 205.99 318.629 205.653C314.399 205.316 310.477 203.313 307.724 200.083L307.776 200.099ZM398.852 99.0871C428.567 122.304 434.283 165.195 411.601 194.681C401.757 207.468 387.687 216.338 371.905 219.705C356.123 223.072 339.658 220.716 325.453 213.06C329.181 212.195 332.644 210.443 335.548 207.952L343.281 201.303C344.521 200.247 345.651 199.068 346.653 197.783C349.517 194.151 351.267 189.767 351.688 185.161C352.11 180.555 351.187 175.926 349.03 171.835C346.873 167.743 343.575 164.366 339.536 162.112C335.498 159.858 330.892 158.824 326.277 159.135C327.628 155.529 328.095 151.65 327.638 147.826C329.184 148.261 330.767 148.546 332.367 148.678C335.512 148.935 338.677 148.566 341.678 147.591C344.679 146.616 347.457 145.055 349.85 142.997L357.977 136.022C359.907 138.975 362.308 141.593 365.084 143.77C371.675 148.942 380.038 151.309 388.362 150.358C389.397 150.216 390.335 149.676 390.977 148.851C391.618 148.027 391.911 146.984 391.794 145.946C391.677 144.909 391.159 143.958 390.35 143.297C389.541 142.636 388.505 142.318 387.465 142.411C382.368 142.991 377.22 141.923 372.775 139.364C368.33 136.804 364.821 132.888 362.765 128.189C362.515 127.615 362.134 127.107 361.652 126.707C361.17 126.307 360.601 126.026 359.99 125.886C359.38 125.746 358.745 125.751 358.137 125.902C357.529 126.052 356.965 126.343 356.49 126.751L344.62 136.957C341.39 139.709 337.199 141.065 332.969 140.726C328.739 140.388 324.816 138.383 322.064 135.153C319.312 131.922 317.957 127.731 318.295 123.501C318.633 119.271 320.638 115.349 323.869 112.597L340.416 98.3685C348.138 91.7469 357.911 87.9968 368.08 87.7531C378.249 87.5093 388.19 90.7868 396.22 97.0308L398.852 99.0871ZM316.008 24.9088L358.206 80.9099C349.711 82.7061 341.806 86.6171 335.223 92.2809L330.055 96.7198L290.435 44.1922C287.899 40.8022 286.811 36.5454 287.407 32.3543C288.004 28.1631 290.237 24.3792 293.618 21.8312C296.998 19.2832 301.251 18.179 305.444 18.7602C309.638 19.3415 313.43 21.5609 315.99 24.9324L316.008 24.9088Z" fill="#01A8F6"/>
</svg>
