<svg width="307" height="346" viewBox="0 0 307 346" fill="none" xmlns="http://www.w3.org/2000/svg">
<rect x="19.3677" y="58.7856" width="150.97" height="44.5988" rx="22.2994" transform="rotate(-11 19.3677 58.7856)" fill="#74D0FA"/>
<rect x="4.87402" y="162.711" width="124.653" height="44.5988" rx="22.2994" transform="rotate(-40.9578 4.87402 162.711)" fill="#A35CDC"/>
<rect x="42.5537" y="192.773" width="143.523" height="44.5988" rx="22.2994" transform="rotate(7.39372 42.5537 192.773)" fill="#74D0FA"/>
<rect x="60.8625" y="301.554" width="163.132" height="44.5988" rx="22.2994" transform="rotate(-12.5883 60.8625 301.554)" fill="#74D0FA"/>
<rect x="170.164" y="249.112" width="130.023" height="44.5988" rx="22.2994" transform="rotate(-47.2302 170.164 249.112)" fill="#A35CDC"/>
<rect x="67" y="175.71" width="124.653" height="44.5988" rx="22.2994" transform="rotate(-40.9578 67 175.71)" fill="#E0DD90"/>
<rect x="195.756" y="64" width="94.4548" height="44.5988" rx="22.2994" transform="rotate(53.296 195.756 64)" fill="#74D0FA"/>
<rect x="136.216" y="167.21" width="88.1981" height="44.5988" rx="22.2994" transform="rotate(-11.6553 136.216 167.21)" fill="#167EAF"/>
<rect x="0.120361" y="269.066" width="108.15" height="44.5988" rx="22.2994" transform="rotate(-13.2643 0.120361 269.066)" fill="#167EAF"/>
<rect x="184.791" y="0.43042" width="163.593" height="44.5988" rx="22.2994" transform="rotate(41.6689 184.791 0.43042)" fill="#167EAF"/>
<path d="M63.0253 67.9561L49.4027 70.6041C49.1769 70.648 48.9429 70.6004 48.7522 70.4717C48.5615 70.3431 48.4297 70.144 48.3858 69.9182C48.3419 69.6924 48.3895 69.4584 48.5181 69.2676C48.6468 69.0769 48.8459 68.9451 49.0717 68.9013L60.6509 66.6505C60.7864 66.6241 60.9059 66.5451 60.983 66.4306C61.0602 66.3162 61.0888 66.1758 61.0624 66.0403C61.0361 65.9049 60.957 65.7854 60.8426 65.7082C60.7282 65.631 60.5878 65.6025 60.4523 65.6288L48.8731 67.8796C48.3763 67.9761 47.9383 68.2661 47.6553 68.6856C47.3723 69.1052 47.2675 69.62 47.3641 70.1168L49.4825 81.0148C49.579 81.5116 49.869 81.9497 50.2885 82.2327C50.7081 82.5157 51.2229 82.6204 51.7197 82.5238L65.3422 79.8759C65.6584 79.8144 65.9372 79.6299 66.1172 79.3629C66.2973 79.0959 66.364 78.7683 66.3025 78.4522L64.449 68.9164C64.3875 68.6003 64.203 68.3215 63.936 68.1414C63.669 67.9613 63.3414 67.8947 63.0253 67.9561ZM65.2808 78.6508C65.2896 78.696 65.2801 78.7428 65.2544 78.7809C65.2286 78.819 65.1888 78.8454 65.1436 78.8542L51.5211 81.5021C51.2953 81.546 51.0613 81.4984 50.8706 81.3698C50.6798 81.2412 50.5481 81.042 50.5042 80.8162L48.71 71.5861C48.9997 71.6701 49.3053 71.6837 49.6013 71.6258L63.2239 68.9778C63.269 68.969 63.3158 68.9785 63.354 69.0043C63.3921 69.03 63.4185 69.0698 63.4273 69.115L65.2808 78.6508ZM61.9039 74.0057C61.9366 74.1741 61.9187 74.3484 61.8524 74.5066C61.786 74.6648 61.6743 74.7998 61.5312 74.8945C61.3882 74.9892 61.2202 75.0393 61.0487 75.0386C60.8772 75.0378 60.7097 74.9862 60.5675 74.8903C60.4253 74.7944 60.3147 74.6584 60.2497 74.4996C60.1848 74.3409 60.1683 74.1664 60.2025 73.9983C60.2367 73.8302 60.32 73.676 60.4419 73.5552C60.5637 73.4345 60.7186 73.3525 60.887 73.3198C61.1128 73.2759 61.3468 73.3235 61.5375 73.4522C61.7282 73.5808 61.86 73.7799 61.9039 74.0057Z" fill="black"/>
<path d="M79.2535 63.8926L79.6416 65.8893L74.4998 66.8887L75.1146 70.0515L79.0549 69.2856L79.4361 71.2469L75.4959 72.0128L76.5091 77.2253L74.0354 77.7061L71.638 65.3729L79.2535 63.8926ZM90.7432 64.2998L92.646 74.0886L90.1546 74.5728L89.9142 73.336C89.6785 73.8219 89.3256 74.2389 88.8554 74.587C88.3947 74.921 87.8639 75.1465 87.2632 75.2632C86.4975 75.4121 85.7893 75.3847 85.1385 75.1811C84.4854 74.9658 83.9274 74.5792 83.4644 74.0213C83.0109 73.4493 82.6995 72.7274 82.5301 71.8558L81.4138 66.1132L83.8875 65.6324L84.9351 71.0215C85.0862 71.799 85.3973 72.362 85.8685 72.7105C86.3373 73.0472 86.9075 73.1503 87.5789 73.0198C88.2621 72.887 88.758 72.5766 89.0666 72.0888C89.3729 71.5892 89.4505 70.9506 89.2994 70.1732L88.2518 64.7841L90.7432 64.2998ZM98.5809 62.6296C99.7471 62.4029 100.762 62.5908 101.624 63.1932C102.485 63.7839 103.043 64.7389 103.3 66.0582L104.416 71.8007L101.942 72.2815L100.891 66.8747C100.74 66.0973 100.43 65.5402 99.9614 65.2035C99.4902 64.855 98.9189 64.746 98.2475 64.8765C97.5643 65.0093 97.0637 65.3267 96.7456 65.8286C96.437 66.3164 96.3583 66.9491 96.5094 67.7265L97.5604 73.1333L95.0867 73.6141L93.1839 63.8254L95.6576 63.3445L95.8946 64.5637C96.142 64.0755 96.4961 63.6644 96.9568 63.3304C97.427 62.9823 97.9684 62.7487 98.5809 62.6296ZM105.174 66.5374C104.982 65.5479 105.006 64.6325 105.245 63.7913C105.497 62.9478 105.924 62.2535 106.528 61.7084C107.131 61.1633 107.85 60.8095 108.687 60.6469C109.323 60.5233 109.957 60.5467 110.589 60.7172C111.219 60.8759 111.749 61.1518 112.18 61.5448L111.277 56.8978L113.786 56.4101L116.327 69.4853L113.818 69.9731L113.537 68.5242C113.324 69.0667 112.97 69.539 112.474 69.9411C111.977 70.3432 111.364 70.6152 110.634 70.7572C109.809 70.9174 109.014 70.852 108.248 70.5607C107.483 70.2694 106.825 69.7799 106.276 69.0921C105.736 68.3902 105.369 67.5386 105.174 66.5374ZM112.885 65.0752C112.768 64.4745 112.551 63.985 112.233 63.6067C111.912 63.2166 111.53 62.9486 111.086 62.8027C110.64 62.6449 110.187 62.6107 109.728 62.7C109.268 62.7893 108.866 62.9836 108.521 63.283C108.175 63.5824 107.921 63.974 107.759 64.458C107.606 64.9278 107.586 65.4572 107.701 66.0462C107.815 66.6352 108.034 67.1306 108.356 67.5324C108.688 67.9202 109.072 68.1941 109.506 68.3541C109.953 68.5118 110.4 68.5472 110.847 68.4602C111.307 68.3709 111.715 68.1754 112.072 67.8738C112.427 67.5603 112.68 67.1687 112.834 66.6988C112.984 66.2172 113.002 65.676 112.885 65.0752ZM117.869 57.8169C117.433 57.9016 117.041 57.8371 116.694 57.6235C116.356 57.3957 116.148 57.0757 116.067 56.6634C115.987 56.2511 116.062 55.882 116.292 55.5562C116.532 55.2162 116.869 55.0039 117.305 54.9191C117.741 54.8344 118.128 54.9059 118.466 55.1337C118.813 55.3474 119.026 55.6604 119.107 56.0727C119.187 56.4849 119.107 56.8611 118.867 57.201C118.637 57.5269 118.304 57.7322 117.869 57.8169ZM119.314 58.7461L121.217 68.5349L118.743 69.0157L116.841 59.2269L119.314 58.7461ZM127.155 57.0753C128.322 56.8486 129.336 57.0365 130.199 57.6389C131.059 58.2296 131.618 59.1845 131.874 60.5038L132.991 66.2464L130.517 66.7272L129.466 61.3204C129.315 60.543 129.005 59.9859 128.536 59.6491C128.065 59.3006 127.493 59.1916 126.822 59.3222C126.139 59.455 125.638 59.7723 125.32 60.2742C125.012 60.7621 124.933 61.3947 125.084 62.1722L126.135 67.579L123.661 68.0598L121.758 58.271L124.232 57.7902L124.469 59.0094C124.717 58.5212 125.071 58.1101 125.531 57.776C126.002 57.4279 126.543 57.1943 127.155 57.0753ZM137.244 55.096C137.974 54.954 138.644 54.9765 139.255 55.1634C139.864 55.3385 140.372 55.6248 140.779 56.0224L140.508 54.6265L142.999 54.1422L144.916 64.0017C145.092 64.9087 145.066 65.7511 144.839 66.5289C144.613 67.3184 144.175 67.9903 143.525 68.5445C142.877 69.1105 142.035 69.4943 140.998 69.6958C139.608 69.966 138.403 69.8642 137.382 69.3903C136.372 68.9142 135.7 68.128 135.364 67.0318L137.821 66.5544C138.037 66.9769 138.383 67.2764 138.857 67.4532C139.346 67.6394 139.896 67.673 140.509 67.5539C141.227 67.4142 141.768 67.083 142.131 66.5601C142.496 66.049 142.594 65.3577 142.424 64.486L142.129 62.9664C141.9 63.4876 141.533 63.9563 141.027 64.3725C140.533 64.7864 139.927 65.0632 139.208 65.2028C138.384 65.3631 137.588 65.2976 136.823 65.0064C136.057 64.7151 135.4 64.2256 134.85 63.5377C134.31 62.8359 133.943 61.9843 133.749 60.983C133.556 59.9935 133.58 59.0782 133.82 58.237C134.072 57.3934 134.493 56.7003 135.084 56.1575C135.687 55.6124 136.407 55.2586 137.244 55.096ZM141.459 59.5209C141.343 58.9201 141.125 58.4306 140.807 58.0524C140.487 57.6623 140.105 57.3943 139.661 57.2483C139.214 57.0906 138.761 57.0564 138.302 57.1457C137.843 57.235 137.44 57.4293 137.095 57.7287C136.75 58.0281 136.496 58.4197 136.333 58.9036C136.18 59.3735 136.161 59.9029 136.275 60.4919C136.39 61.0809 136.608 61.5763 136.931 61.9781C137.263 62.3658 137.646 62.6397 138.081 62.7998C138.527 62.9575 138.974 62.9929 139.422 62.9059C139.881 62.8166 140.289 62.6211 140.646 62.3194C141.001 62.006 141.255 61.6143 141.408 61.1445C141.559 60.6628 141.576 60.1217 141.459 59.5209Z" fill="black"/>
<path d="M53.9709 147.516C54.5921 147.152 55.2637 147.037 55.9856 147.173C56.7075 147.31 57.3123 147.659 57.8 148.22C58.2405 148.728 58.503 149.287 58.5875 149.897C58.6732 150.49 58.5748 151.099 58.2924 151.726C58.0099 152.352 57.547 152.945 56.9036 153.503L52.8119 157.055L44.5762 147.567L48.4911 144.168C49.1345 143.61 49.7778 143.234 50.4209 143.042C51.073 142.841 51.6782 142.824 52.2363 142.991C52.8035 143.15 53.2916 143.466 53.7007 143.937C54.1805 144.49 54.4321 145.082 54.4556 145.713C54.4881 146.336 54.3265 146.937 53.9709 147.516ZM49.8774 149.83L51.6174 148.319C52.0705 147.926 52.3329 147.524 52.4045 147.112C52.4682 146.691 52.3349 146.29 52.0046 145.91C51.6742 145.529 51.2962 145.341 50.8706 145.345C50.445 145.349 50.0056 145.547 49.5525 145.941L47.8126 147.451L49.8774 149.83ZM55.2866 152.19C55.7488 151.788 56.0124 151.369 56.0773 150.931C56.1513 150.486 56.0153 150.063 55.6692 149.665C55.3152 149.257 54.904 149.058 54.4354 149.067C53.9591 149.068 53.4898 149.268 53.0276 149.669L51.1517 151.298L53.3699 153.853L55.2866 152.19ZM65.1375 139.468C65.3735 139.74 65.5677 140 65.7203 140.249L60.2149 145.028C60.7322 145.532 61.2922 145.793 61.895 145.81C62.4977 145.827 63.0438 145.623 63.5331 145.199C64.24 144.585 64.4794 143.845 64.2515 142.978L66.3041 141.196C66.7159 142.11 66.8182 143.07 66.611 144.076C66.3959 145.073 65.8398 145.961 64.9426 146.74C64.2176 147.369 63.4275 147.777 62.5722 147.963C61.7181 148.133 60.8723 148.064 60.0347 147.758C59.2062 147.445 58.4577 146.903 57.7891 146.132C57.1126 145.353 56.6773 144.531 56.4832 143.667C56.2891 142.802 56.3398 141.964 56.6355 141.151C56.9311 140.338 57.4504 139.61 58.1935 138.965C58.9095 138.343 59.6821 137.943 60.5114 137.763C61.3498 137.576 62.1708 137.634 62.9745 137.937C63.7793 138.224 64.5003 138.734 65.1375 139.468ZM62.6945 140.635C62.2607 140.154 61.7457 139.917 61.1496 139.926C60.5457 139.926 59.9945 140.142 59.4961 140.575C59.0248 140.984 58.7519 141.475 58.6774 142.048C58.6041 142.605 58.7514 143.168 59.1194 143.738L62.6945 140.635ZM66.1552 138.823C65.4945 138.062 65.058 137.257 64.8457 136.408C64.6426 135.552 64.6616 134.741 64.9028 133.975C65.1531 133.202 65.6 132.536 66.2434 131.977C66.8053 131.49 67.393 131.178 68.0065 131.043C68.6291 130.9 69.2167 130.89 69.7693 131.014L68.8372 129.94L70.7539 128.277L77.2906 135.807L75.3739 137.471L74.4182 136.37C74.4803 136.936 74.3961 137.525 74.1656 138.139C73.9363 138.735 73.5407 139.277 72.9789 139.765C72.3445 140.315 71.6229 140.655 70.8142 140.785C70.0144 140.908 69.2049 140.808 68.3854 140.486C67.5672 140.148 66.8238 139.593 66.1552 138.823ZM72.1055 133.706C71.7044 133.244 71.2716 132.928 70.8072 132.759C70.3349 132.581 69.8699 132.54 69.4124 132.635C68.9469 132.721 68.5375 132.918 68.1841 133.225C67.8306 133.531 67.5791 133.901 67.4295 134.332C67.2799 134.764 67.2555 135.23 67.3562 135.731C67.4581 136.214 67.7058 136.683 68.0991 137.136C68.4924 137.589 68.9291 137.909 69.4093 138.096C69.8906 138.266 70.3595 138.312 70.8158 138.234C71.2813 138.147 71.6862 137.955 72.0306 137.656C72.384 137.349 72.64 136.976 72.7987 136.536C72.9495 136.088 72.9739 135.622 72.872 135.138C72.7622 134.645 72.5067 134.168 72.1055 133.706ZM79.722 120.492L86.2586 128.023L84.342 129.687L83.516 128.735C83.5545 129.274 83.457 129.812 83.2234 130.348C82.9911 130.867 82.6438 131.328 82.1816 131.729C81.5926 132.24 80.9653 132.57 80.2998 132.719C79.6264 132.858 78.9499 132.802 78.2702 132.55C77.5917 132.281 76.9614 131.811 76.3793 131.14L72.5446 126.722L74.4477 125.071L78.0464 129.217C78.5656 129.815 79.1163 130.147 79.6985 130.214C80.2729 130.271 80.8183 130.076 81.3349 129.628C81.8605 129.171 82.1352 128.655 82.1589 128.078C82.1748 127.492 81.9232 126.9 81.404 126.302L77.8053 122.156L79.722 120.492ZM85.1723 118.503L88.3344 122.146C88.5547 122.399 88.7748 122.534 88.9949 122.55C89.2162 122.548 89.4718 122.422 89.7618 122.17L90.6454 121.403L92.0377 123.007L90.8414 124.045C89.2374 125.438 87.7589 125.354 86.406 123.796L83.2556 120.166L82.3584 120.945L81.0015 119.382L81.8987 118.603L80.2822 116.741L82.1989 115.077L83.8154 116.939L85.501 115.476L86.8579 117.04L85.1723 118.503ZM94.0743 108.035L99.0398 123.174L97.0144 124.932L95.389 119.764L85.9998 115.043L88.134 113.191L94.6441 116.764L92.0489 109.793L94.0743 108.035Z" fill="white"/>
<path d="M82.9229 225.519C82.0542 225.406 81.2881 225.155 80.6246 224.767C79.973 224.379 79.4811 223.88 79.1491 223.268C78.8171 222.656 78.6945 221.969 78.7815 221.206L81.459 221.553C81.4283 222.07 81.5543 222.497 81.837 222.836C82.1316 223.177 82.5645 223.385 83.1357 223.459C83.7188 223.534 84.1948 223.457 84.5635 223.227C84.9338 222.984 85.1482 222.637 85.2069 222.185C85.2548 221.816 85.1811 221.498 84.9859 221.23C84.7907 220.963 84.529 220.741 84.2009 220.566C83.8862 220.38 83.4422 220.165 82.8688 219.921C82.0904 219.578 81.4601 219.26 80.9777 218.968C80.5088 218.665 80.12 218.257 79.8113 217.745C79.5161 217.223 79.4194 216.569 79.5213 215.784C79.6171 215.046 79.8849 214.427 80.3249 213.928C80.7648 213.428 81.3365 213.079 82.04 212.88C82.745 212.669 83.5259 212.619 84.3827 212.73C85.668 212.897 86.6683 213.347 87.3838 214.081C88.1127 214.805 88.4462 215.732 88.3844 216.861L85.6354 216.505C85.6672 216.073 85.5283 215.698 85.2187 215.38C84.9226 215.051 84.4949 214.85 83.9355 214.778C83.4476 214.714 83.0387 214.788 82.7088 215C82.3907 215.212 82.2008 215.557 82.1391 216.033C82.0958 216.366 82.1666 216.66 82.3515 216.913C82.5498 217.157 82.8004 217.371 83.1031 217.556C83.4194 217.73 83.8634 217.945 84.4352 218.2C85.2136 218.543 85.8431 218.867 86.324 219.171C86.8048 219.476 87.1988 219.89 87.5059 220.414C87.813 220.938 87.9164 221.586 87.8161 222.36C87.7296 223.026 87.4767 223.623 87.0575 224.149C86.6383 224.676 86.073 225.068 85.3619 225.327C84.6522 225.574 83.8392 225.637 82.9229 225.519ZM96.3858 216.938C97.1355 217.035 97.7803 217.288 98.3202 217.697C98.8616 218.094 99.2513 218.635 99.4892 219.319C99.7406 219.993 99.8083 220.776 99.6925 221.669L98.9397 227.47L96.4407 227.146L97.1495 221.683C97.2514 220.898 97.133 220.272 96.7944 219.804C96.4572 219.325 95.9495 219.041 95.2712 218.953C94.581 218.863 94.0058 219.007 93.5456 219.383C93.0988 219.748 92.8245 220.324 92.7226 221.109L92.0138 226.571L89.5147 226.247L91.2288 213.038L93.7279 213.362L93.1372 217.914C93.5141 217.527 93.9858 217.249 94.5522 217.081C95.1201 216.9 95.7313 216.853 96.3858 216.938ZM105.687 228.509C104.734 228.385 103.905 228.066 103.197 227.55C102.491 227.023 101.968 226.344 101.628 225.514C101.3 224.685 101.202 223.764 101.333 222.753C101.464 221.741 101.8 220.877 102.341 220.161C102.894 219.446 103.584 218.931 104.411 218.614C105.24 218.286 106.131 218.184 107.083 218.308C108.035 218.431 108.87 218.757 109.588 219.286C110.307 219.803 110.837 220.477 111.177 221.307C111.529 222.14 111.639 223.061 111.508 224.073C111.376 225.085 111.029 225.947 110.464 226.66C109.912 227.375 109.215 227.896 108.374 228.222C107.546 228.538 106.65 228.634 105.687 228.509ZM105.969 226.331C106.421 226.39 106.858 226.337 107.278 226.174C107.712 226.001 108.077 225.709 108.372 225.3C108.667 224.89 108.855 224.37 108.937 223.739C109.059 222.799 108.903 222.047 108.468 221.482C108.046 220.907 107.479 220.573 106.765 220.481C106.051 220.388 105.416 220.566 104.862 221.014C104.321 221.452 103.99 222.141 103.868 223.082C103.746 224.022 103.884 224.778 104.281 225.35C104.693 225.911 105.255 226.238 105.969 226.331ZM116.296 221.119C116.676 220.708 117.165 220.39 117.763 220.165C118.374 219.93 119.043 219.86 119.769 219.954C120.614 220.064 121.349 220.371 121.973 220.875C122.609 221.381 123.073 222.046 123.366 222.871C123.671 223.685 123.759 224.598 123.627 225.609C123.496 226.621 123.177 227.493 122.671 228.226C122.178 228.949 121.558 229.479 120.812 229.818C120.078 230.159 119.289 230.274 118.444 230.164C117.718 230.07 117.095 229.838 116.574 229.468C116.065 229.099 115.668 228.667 115.381 228.17L114.587 234.292L112.088 233.968L113.983 219.366L116.482 219.691L116.296 221.119ZM121.075 225.278C121.152 224.683 121.093 224.155 120.899 223.694C120.718 223.223 120.44 222.848 120.065 222.57C119.701 222.293 119.288 222.124 118.824 222.064C118.371 222.005 117.928 222.068 117.492 222.254C117.07 222.429 116.706 222.721 116.398 223.129C116.103 223.538 115.917 224.04 115.84 224.635C115.763 225.23 115.815 225.763 115.995 226.234C116.188 226.707 116.465 227.088 116.827 227.377C117.203 227.656 117.616 227.824 118.069 227.883C118.533 227.943 118.976 227.88 119.4 227.693C119.836 227.507 120.201 227.21 120.496 226.8C120.803 226.392 120.996 225.885 121.075 225.278ZM128.394 222.689C128.774 222.278 129.263 221.96 129.861 221.735C130.472 221.5 131.141 221.43 131.867 221.524C132.712 221.633 133.446 221.94 134.071 222.445C134.707 222.951 135.171 223.616 135.463 224.441C135.769 225.255 135.856 226.168 135.725 227.179C135.594 228.191 135.275 229.063 134.768 229.796C134.275 230.518 133.656 231.049 132.91 231.388C132.176 231.728 131.387 231.844 130.542 231.734C129.816 231.64 129.193 231.408 128.672 231.038C128.163 230.669 127.766 230.236 127.479 229.739L126.685 235.862L124.186 235.538L126.08 220.936L128.579 221.261L128.394 222.689ZM133.172 226.848C133.25 226.253 133.191 225.725 132.997 225.264C132.816 224.793 132.538 224.418 132.163 224.14C131.799 223.863 131.386 223.694 130.921 223.634C130.469 223.575 130.025 223.638 129.59 223.824C129.168 223.999 128.803 224.291 128.496 224.698C128.201 225.108 128.015 225.61 127.938 226.205C127.861 226.8 127.912 227.333 128.093 227.804C128.286 228.277 128.563 228.658 128.925 228.947C129.3 229.226 129.714 229.394 130.166 229.453C130.63 229.513 131.074 229.45 131.498 229.263C131.933 229.077 132.299 228.78 132.594 228.37C132.901 227.962 133.094 227.455 133.172 226.848ZM139.598 221.492C139.158 221.435 138.807 221.251 138.545 220.938C138.296 220.616 138.199 220.246 138.253 219.83C138.307 219.413 138.495 219.086 138.816 218.85C139.15 218.603 139.538 218.508 139.978 218.565C140.419 218.622 140.763 218.812 141.012 219.135C141.273 219.447 141.377 219.811 141.323 220.228C141.269 220.644 141.075 220.976 140.74 221.223C140.419 221.46 140.039 221.55 139.598 221.492ZM140.677 222.83L139.394 232.719L136.895 232.395L138.178 222.506L140.677 222.83ZM148.645 223.719C149.823 223.872 150.726 224.37 151.355 225.214C151.985 226.046 152.214 227.129 152.041 228.462L151.288 234.263L148.789 233.939L149.498 228.476C149.6 227.691 149.481 227.065 149.143 226.597C148.805 226.118 148.298 225.834 147.619 225.746C146.929 225.656 146.354 225.8 145.894 226.176C145.447 226.541 145.173 227.117 145.071 227.902L144.362 233.364L141.863 233.04L143.146 223.151L145.645 223.475L145.485 224.707C145.874 224.322 146.34 224.043 146.883 223.872C147.439 223.69 148.026 223.639 148.645 223.719ZM158.842 225.024C159.58 225.12 160.209 225.353 160.73 225.723C161.252 226.081 161.644 226.513 161.905 227.019L162.088 225.609L164.605 225.935L163.312 235.896C163.193 236.812 162.903 237.603 162.441 238.27C161.978 238.948 161.351 239.447 160.559 239.768C159.766 240.1 158.845 240.199 157.798 240.063C156.394 239.881 155.282 239.404 154.462 238.632C153.655 237.861 153.265 236.903 153.293 235.757L155.774 236.079C155.846 236.548 156.079 236.942 156.474 237.259C156.879 237.59 157.39 237.796 158.009 237.876C158.735 237.97 159.353 237.826 159.862 237.445C160.37 237.075 160.681 236.45 160.795 235.569L160.994 234.034C160.613 234.457 160.116 234.785 159.505 235.021C158.906 235.257 158.243 235.329 157.517 235.235C156.684 235.127 155.95 234.813 155.316 234.295C154.681 233.778 154.212 233.106 153.907 232.28C153.617 231.443 153.537 230.519 153.668 229.508C153.798 228.508 154.109 227.647 154.602 226.924C155.107 226.203 155.726 225.679 156.458 225.35C157.203 225.023 157.997 224.915 158.842 225.024ZM161.446 230.553C161.525 229.946 161.473 229.413 161.291 228.954C161.11 228.483 160.832 228.108 160.456 227.829C160.083 227.539 159.664 227.363 159.2 227.303C158.736 227.243 158.293 227.3 157.87 227.476C157.448 227.651 157.084 227.942 156.777 228.35C156.483 228.748 156.298 229.244 156.221 229.839C156.143 230.434 156.194 230.973 156.374 231.456C156.567 231.929 156.844 232.31 157.206 232.599C157.579 232.889 157.992 233.064 158.445 233.122C158.909 233.183 159.358 233.126 159.792 232.952C160.227 232.767 160.592 232.475 160.885 232.078C161.18 231.668 161.367 231.16 161.446 230.553Z" fill="black"/>
<path d="M112.385 305.661L112.829 307.646L109.561 308.376L111.856 318.653L109.397 319.202L107.102 308.925L103.834 309.655L103.391 307.67L112.385 305.661ZM124.832 310.425C124.91 310.777 124.957 311.098 124.973 311.39L117.858 312.978C118.074 313.668 118.443 314.163 118.965 314.465C119.487 314.766 120.065 314.846 120.697 314.705C121.611 314.501 122.173 313.964 122.384 313.093L125.037 312.5C124.965 313.5 124.599 314.393 123.938 315.18C123.275 315.955 122.364 316.472 121.205 316.731C120.268 316.94 119.379 316.924 118.538 316.681C117.706 316.424 116.994 315.962 116.402 315.295C115.823 314.626 115.421 313.793 115.199 312.798C114.974 311.79 114.982 310.86 115.222 310.008C115.462 309.155 115.905 308.441 116.551 307.866C117.197 307.292 118.001 306.897 118.961 306.683C119.886 306.476 120.756 306.491 121.571 306.727C122.398 306.96 123.093 307.401 123.656 308.05C124.228 308.685 124.62 309.477 124.832 310.425ZM122.127 310.291C121.975 309.662 121.634 309.209 121.105 308.934C120.574 308.646 119.986 308.575 119.342 308.719C118.733 308.855 118.259 309.157 117.921 309.626C117.593 310.081 117.454 310.646 117.507 311.323L122.127 310.291ZM126.041 310.376C125.817 309.369 125.825 308.445 126.068 307.604C126.308 306.751 126.745 306.039 127.38 305.467C128.012 304.883 128.796 304.486 129.733 304.277C130.939 304.008 132.003 304.09 132.923 304.524C133.853 304.943 134.574 305.667 135.087 306.696L132.434 307.289C132.2 306.899 131.886 306.624 131.494 306.466C131.111 306.293 130.674 306.262 130.182 306.372C129.479 306.529 128.981 306.91 128.686 307.517C128.388 308.112 128.344 308.878 128.554 309.815C128.76 310.741 129.126 311.415 129.651 311.839C130.173 312.251 130.786 312.378 131.489 312.222C132.484 311.999 133.035 311.409 133.14 310.451L135.793 309.859C135.759 310.973 135.413 311.929 134.755 312.728C134.098 313.526 133.171 314.059 131.977 314.326C131.04 314.535 130.163 314.516 129.345 314.268C128.525 314.008 127.826 313.55 127.249 312.892C126.669 312.222 126.266 311.384 126.041 310.376ZM141.605 301.645C142.342 301.48 143.035 301.497 143.682 301.697C144.327 301.885 144.877 302.26 145.335 302.822C145.801 303.369 146.133 304.082 146.329 304.961L147.604 310.67L145.144 311.219L143.944 305.844C143.771 305.071 143.446 304.522 142.968 304.199C142.487 303.863 141.913 303.77 141.246 303.919C140.567 304.071 140.075 304.402 139.771 304.913C139.476 305.409 139.415 306.044 139.587 306.817L140.788 312.192L138.328 312.741L135.425 299.742L137.885 299.192L138.885 303.672C139.107 303.18 139.456 302.758 139.93 302.406C140.402 302.042 140.961 301.788 141.605 301.645ZM153.131 299.071C154.291 298.812 155.31 298.971 156.189 299.55C157.066 300.116 157.65 301.055 157.943 302.367L159.218 308.076L156.759 308.626L155.558 303.25C155.386 302.477 155.06 301.929 154.582 301.605C154.102 301.27 153.528 301.177 152.86 301.326C152.181 301.477 151.689 301.809 151.385 302.319C151.09 302.815 151.029 303.45 151.202 304.223L152.402 309.598L149.943 310.148L147.769 300.415L150.229 299.866L150.499 301.078C150.733 300.583 151.076 300.163 151.527 299.816C151.987 299.455 152.522 299.207 153.131 299.071ZM165.914 306.747C164.977 306.956 164.088 306.94 163.247 306.697C162.403 306.443 161.68 305.984 161.076 305.319C160.485 304.652 160.078 303.821 159.855 302.825C159.633 301.83 159.654 300.903 159.917 300.045C160.192 299.184 160.664 298.464 161.334 297.884C162.001 297.293 162.803 296.892 163.74 296.683C164.677 296.474 165.573 296.495 166.429 296.747C167.281 296.986 168.01 297.439 168.613 298.103C169.228 298.765 169.647 299.594 169.869 300.589C170.091 301.585 170.059 302.514 169.772 303.377C169.497 304.238 169.02 304.965 168.341 305.56C167.672 306.139 166.863 306.535 165.914 306.747ZM165.435 304.604C165.88 304.505 166.273 304.306 166.612 304.009C166.96 303.698 167.203 303.299 167.341 302.814C167.478 302.328 167.478 301.775 167.339 301.154C167.133 300.229 166.728 299.575 166.127 299.193C165.534 298.797 164.886 298.677 164.184 298.834C163.481 298.991 162.946 299.375 162.578 299.986C162.219 300.582 162.143 301.343 162.35 302.268C162.557 303.193 162.945 303.857 163.514 304.258C164.092 304.646 164.733 304.761 165.435 304.604ZM172.316 291.503L175.219 304.503L172.76 305.052L169.857 292.053L172.316 291.503ZM182.006 303.154C181.069 303.363 180.18 303.346 179.339 303.104C178.495 302.849 177.772 302.39 177.168 301.726C176.577 301.058 176.17 300.227 175.947 299.232C175.725 298.236 175.746 297.309 176.009 296.451C176.284 295.591 176.756 294.871 177.426 294.291C178.093 293.699 178.895 293.299 179.832 293.089C180.769 292.88 181.665 292.901 182.521 293.153C183.373 293.393 184.101 293.845 184.705 294.51C185.32 295.171 185.738 296 185.961 296.996C186.183 297.991 186.151 298.92 185.864 299.784C185.589 300.644 185.112 301.372 184.433 301.966C183.764 302.546 182.954 302.942 182.006 303.154ZM181.527 301.01C181.972 300.911 182.364 300.713 182.704 300.416C183.052 300.104 183.295 299.706 183.433 299.22C183.57 298.734 183.57 298.181 183.431 297.561C183.224 296.635 182.82 295.982 182.219 295.6C181.626 295.203 180.978 295.084 180.276 295.24C179.573 295.397 179.038 295.781 178.67 296.392C178.311 296.989 178.235 297.749 178.442 298.675C178.649 299.6 179.036 300.263 179.606 300.665C180.184 301.052 180.825 301.167 181.527 301.01ZM190.455 290.717C191.181 290.555 191.852 290.559 192.468 290.729C193.081 290.887 193.597 291.159 194.015 291.545L193.705 290.157L196.182 289.604L198.371 299.407C198.573 300.309 198.57 301.151 198.364 301.935C198.16 302.731 197.741 303.414 197.107 303.986C196.475 304.57 195.644 304.977 194.613 305.207C193.231 305.516 192.023 305.448 190.989 305.002C189.967 304.554 189.273 303.787 188.907 302.701L191.349 302.155C191.578 302.571 191.931 302.861 192.41 303.025C192.904 303.197 193.455 303.216 194.064 303.08C194.778 302.92 195.31 302.574 195.658 302.041C196.009 301.52 196.088 300.827 195.894 299.96L195.557 298.449C195.343 298.977 194.988 299.455 194.494 299.885C194.012 300.313 193.413 300.606 192.699 300.766C191.879 300.949 191.083 300.905 190.309 300.635C189.536 300.365 188.865 299.894 188.297 299.222C187.738 298.535 187.347 297.694 187.125 296.699C186.905 295.715 186.903 294.799 187.12 293.952C187.348 293.102 187.75 292.397 188.326 291.838C188.914 291.277 189.623 290.903 190.455 290.717ZM194.792 295.024C194.658 294.426 194.428 293.943 194.099 293.574C193.768 293.193 193.379 292.935 192.931 292.802C192.48 292.656 192.027 292.635 191.57 292.737C191.113 292.839 190.716 293.044 190.38 293.353C190.043 293.662 189.8 294.06 189.651 294.549C189.511 295.022 189.506 295.552 189.637 296.138C189.767 296.723 190 297.213 190.333 297.605C190.676 297.984 191.067 298.247 191.506 298.395C191.956 298.54 192.404 298.563 192.849 298.464C193.306 298.362 193.708 298.155 194.057 297.844C194.403 297.52 194.646 297.122 194.786 296.648C194.923 296.162 194.925 295.621 194.792 295.024ZM207.895 286.989L205.07 302.669L202.453 303.254L203.478 297.934L197.46 289.319L200.218 288.703L204.248 294.941L205.277 287.573L207.895 286.989Z" fill="black"/>
<path d="M220.235 236.159C219.64 236.802 218.992 237.281 218.291 237.597C217.599 237.905 216.907 238.017 216.216 237.933C215.525 237.85 214.893 237.551 214.321 237.039L216.155 235.057C216.558 235.381 216.979 235.526 217.42 235.491C217.868 235.449 218.288 235.216 218.679 234.793C219.078 234.361 219.291 233.928 219.316 233.494C219.333 233.052 219.174 232.676 218.839 232.366C218.566 232.114 218.264 231.99 217.933 231.994C217.602 231.999 217.27 232.084 216.937 232.249C216.603 232.398 216.171 232.636 215.64 232.962C214.91 233.398 214.286 233.728 213.768 233.952C213.249 234.159 212.692 234.24 212.096 234.196C211.499 234.134 210.91 233.834 210.329 233.297C209.782 232.791 209.433 232.215 209.28 231.567C209.128 230.919 209.174 230.251 209.419 229.562C209.655 228.865 210.066 228.199 210.653 227.565C211.533 226.613 212.48 226.059 213.492 225.9C214.505 225.725 215.453 225.989 216.338 226.694L214.456 228.729C214.123 228.453 213.736 228.349 213.297 228.417C212.858 228.468 212.447 228.701 212.064 229.115C211.73 229.476 211.553 229.852 211.534 230.244C211.524 230.626 211.695 230.98 212.047 231.306C212.294 231.534 212.574 231.647 212.888 231.643C213.202 231.622 213.521 231.542 213.847 231.402C214.172 231.245 214.604 231.007 215.144 230.689C215.874 230.253 216.502 229.927 217.029 229.711C217.556 229.495 218.121 229.414 218.726 229.467C219.331 229.52 219.92 229.811 220.493 230.34C220.986 230.797 221.326 231.348 221.512 231.995C221.699 232.641 221.692 233.33 221.491 234.059C221.281 234.781 220.863 235.481 220.235 236.159ZM220.519 228.271C219.779 227.587 219.257 226.834 218.953 226.014C218.658 225.185 218.588 224.376 218.744 223.589C218.909 222.793 219.28 222.082 219.859 221.457C220.364 220.911 220.914 220.537 221.509 220.335C222.112 220.125 222.695 220.051 223.258 220.114L222.214 219.149L223.938 217.286L231.258 224.057L229.535 225.92L228.464 224.93C228.588 225.486 228.569 226.081 228.406 226.716C228.244 227.333 227.91 227.915 227.404 228.462C226.834 229.078 226.154 229.495 225.364 229.713C224.583 229.922 223.767 229.911 222.917 229.681C222.067 229.434 221.268 228.964 220.519 228.271ZM225.874 222.535C225.425 222.119 224.96 221.853 224.48 221.735C223.991 221.61 223.525 221.62 223.08 221.764C222.627 221.901 222.242 222.141 221.924 222.485C221.606 222.828 221.396 223.223 221.295 223.668C221.193 224.114 221.22 224.58 221.375 225.066C221.529 225.536 221.826 225.974 222.267 226.382C222.707 226.789 223.176 227.06 223.674 227.193C224.171 227.309 224.642 227.304 225.087 227.176C225.54 227.04 225.922 226.804 226.231 226.469C226.549 226.126 226.763 225.727 226.873 225.272C226.974 224.81 226.947 224.344 226.793 223.874C226.63 223.397 226.324 222.95 225.874 222.535ZM234.048 217.621L230.144 210.577L231.965 208.608L236.78 218.088L234.702 220.334L224.888 216.258L226.721 214.276L234.048 217.621ZM232.922 205.824C232.62 206.15 232.266 206.329 231.86 206.362C231.453 206.378 231.095 206.243 230.787 205.958C230.479 205.673 230.321 205.331 230.314 204.932C230.306 204.516 230.453 204.145 230.755 203.819C231.056 203.493 231.411 203.323 231.818 203.307C232.224 203.274 232.581 203.4 232.889 203.685C233.198 203.97 233.356 204.321 233.364 204.737C233.371 205.136 233.223 205.498 232.922 205.824ZM234.637 205.719L241.958 212.49L240.246 214.34L232.926 207.569L234.637 205.719ZM239.975 199.737C240.781 198.865 241.711 198.417 242.763 198.393C243.806 198.361 244.821 198.801 245.808 199.713L250.102 203.686L248.391 205.536L244.347 201.796C243.766 201.258 243.187 200.992 242.61 200.997C242.024 200.994 241.498 201.244 241.034 201.746C240.561 202.257 240.345 202.809 240.385 203.402C240.424 203.978 240.735 204.535 241.316 205.073L245.36 208.813L243.648 210.663L236.328 203.891L238.039 202.041L238.951 202.885C238.862 202.345 238.905 201.804 239.079 201.262C239.252 200.703 239.551 200.195 239.975 199.737ZM246.942 192.178C247.448 191.632 248.002 191.253 248.605 191.043C249.2 190.825 249.778 190.755 250.342 190.835L249.298 189.87L251.022 188.007L258.395 194.827C259.073 195.455 259.55 196.149 259.826 196.911C260.111 197.681 260.155 198.482 259.958 199.314C259.77 200.153 259.317 200.96 258.6 201.736C257.639 202.775 256.606 203.405 255.502 203.627C254.407 203.839 253.4 203.603 252.481 202.917L254.18 201.08C254.605 201.293 255.06 201.33 255.547 201.192C256.052 201.054 256.515 200.755 256.939 200.297C257.436 199.76 257.677 199.173 257.66 198.537C257.653 197.909 257.323 197.293 256.671 196.69L255.535 195.639C255.659 196.195 255.639 196.79 255.477 197.425C255.323 198.05 254.998 198.632 254.501 199.169C253.93 199.786 253.25 200.203 252.46 200.421C251.671 200.638 250.851 200.632 250.001 200.402C249.151 200.155 248.351 199.685 247.603 198.992C246.863 198.308 246.341 197.555 246.037 196.735C245.742 195.906 245.672 195.098 245.828 194.31C245.992 193.514 246.364 192.803 246.942 192.178ZM252.958 193.256C252.509 192.84 252.044 192.574 251.564 192.456C251.075 192.331 250.609 192.341 250.164 192.485C249.711 192.622 249.326 192.862 249.008 193.206C248.69 193.549 248.48 193.944 248.379 194.389C248.277 194.835 248.304 195.301 248.459 195.787C248.613 196.257 248.91 196.695 249.351 197.103C249.791 197.51 250.26 197.781 250.758 197.914C251.255 198.031 251.726 198.025 252.171 197.897C252.624 197.761 253.006 197.525 253.315 197.19C253.633 196.847 253.847 196.448 253.957 195.993C254.057 195.531 254.031 195.065 253.877 194.595C253.714 194.118 253.408 193.671 252.958 193.256ZM262.723 190.28C262.169 190.879 261.567 191.319 260.915 191.599C260.255 191.871 259.609 191.977 258.979 191.916C258.356 191.847 257.808 191.618 257.334 191.229L259.058 189.366C259.372 189.591 259.732 189.671 260.137 189.604C260.55 189.528 260.924 189.31 261.258 188.949C261.584 188.597 261.766 188.258 261.804 187.934C261.851 187.601 261.764 187.333 261.544 187.129C261.306 186.909 261.015 186.869 260.673 187.01C260.329 187.134 259.843 187.395 259.213 187.793C258.576 188.217 258.023 188.54 257.557 188.762C257.098 188.975 256.605 189.075 256.078 189.061C255.559 189.039 255.053 188.8 254.56 188.344C254.154 187.969 253.89 187.512 253.768 186.973C253.653 186.426 253.698 185.847 253.904 185.236C254.117 184.616 254.497 184.011 255.043 183.421C255.85 182.549 256.714 182.056 257.635 181.944C258.547 181.824 259.398 182.079 260.187 182.711L258.549 184.482C258.234 184.239 257.891 184.151 257.52 184.216C257.148 184.264 256.795 184.469 256.461 184.83C256.151 185.165 255.972 185.482 255.925 185.781C255.885 186.071 255.975 186.318 256.196 186.522C256.442 186.75 256.746 186.802 257.106 186.678C257.457 186.545 257.94 186.28 258.553 185.883C259.174 185.476 259.714 185.167 260.172 184.953C260.631 184.74 261.124 184.649 261.652 184.679C262.179 184.693 262.689 184.919 263.181 185.358C263.604 185.75 263.873 186.219 263.988 186.766C264.111 187.305 264.065 187.884 263.852 188.504C263.637 189.107 263.261 189.699 262.723 190.28Z" fill="white"/>
<path d="M111.561 157.481L112.894 159.017L108.939 162.451L111.051 164.884L114.082 162.253L115.392 163.761L112.36 166.393L115.841 170.403L113.938 172.055L105.702 162.566L111.561 157.481ZM117.365 162.43C116.704 161.669 116.268 160.864 116.055 160.015C115.852 159.159 115.871 158.348 116.112 157.582C116.363 156.809 116.81 156.143 117.453 155.584C118.015 155.097 118.603 154.785 119.216 154.65C119.839 154.507 120.426 154.497 120.979 154.621L120.047 153.547L121.964 151.884L128.5 159.415L126.584 161.078L125.628 159.977C125.69 160.543 125.606 161.132 125.375 161.746C125.146 162.342 124.75 162.884 124.189 163.372C123.554 163.922 122.833 164.263 122.024 164.393C121.224 164.515 120.415 164.415 119.595 164.093C118.777 163.755 118.033 163.2 117.365 162.43ZM123.315 157.313C122.914 156.851 122.481 156.535 122.017 156.366C121.545 156.188 121.08 156.147 120.622 156.242C120.157 156.328 119.747 156.525 119.394 156.832C119.04 157.138 118.789 157.508 118.639 157.939C118.49 158.371 118.465 158.837 118.566 159.338C118.668 159.821 118.915 160.29 119.309 160.743C119.702 161.196 120.139 161.516 120.619 161.703C121.1 161.873 121.569 161.919 122.026 161.841C122.491 161.755 122.896 161.562 123.24 161.263C123.594 160.956 123.85 160.583 124.008 160.143C124.159 159.695 124.184 159.229 124.082 158.745C123.972 158.252 123.716 157.775 123.315 157.313ZM133.347 155.422C132.731 155.957 132.083 156.328 131.405 156.535C130.719 156.734 130.066 156.768 129.446 156.639C128.834 156.503 128.315 156.215 127.886 155.776L129.803 154.113C130.091 154.371 130.44 154.489 130.85 154.467C131.269 154.437 131.664 154.261 132.035 153.939C132.398 153.624 132.616 153.308 132.689 152.99C132.772 152.664 132.715 152.388 132.518 152.161C132.306 151.916 132.022 151.845 131.666 151.948C131.311 152.033 130.799 152.239 130.129 152.566C129.449 152.918 128.865 153.179 128.377 153.348C127.898 153.51 127.397 153.556 126.874 153.485C126.361 153.406 125.884 153.113 125.444 152.605C125.082 152.188 124.869 151.705 124.806 151.157C124.752 150.6 124.86 150.029 125.131 149.444C125.411 148.852 125.855 148.292 126.462 147.765C127.359 146.986 128.272 146.591 129.2 146.58C130.12 146.56 130.937 146.907 131.652 147.621L129.831 149.202C129.544 148.927 129.213 148.801 128.837 148.826C128.462 148.833 128.089 148.998 127.717 149.321C127.373 149.62 127.161 149.915 127.08 150.207C127.009 150.491 127.072 150.747 127.269 150.973C127.489 151.227 127.785 151.312 128.157 151.228C128.521 151.134 129.029 150.923 129.681 150.595C130.343 150.259 130.914 150.01 131.393 149.848C131.872 149.687 132.373 149.65 132.894 149.738C133.416 149.809 133.898 150.089 134.34 150.58C134.717 151.015 134.933 151.511 134.988 152.067C135.051 152.616 134.942 153.187 134.662 153.78C134.384 154.356 133.945 154.903 133.347 155.422ZM135.376 140.051C135.947 139.555 136.565 139.242 137.229 139.11C137.886 138.969 138.549 139.037 139.218 139.314C139.889 139.574 140.519 140.044 141.109 140.724L144.944 145.142L143.041 146.794L139.43 142.634C138.911 142.036 138.364 141.708 137.79 141.65C137.208 141.584 136.658 141.775 136.142 142.223C135.616 142.679 135.341 143.204 135.316 143.798C135.292 144.375 135.54 144.962 136.059 145.56L139.669 149.72L137.766 151.372L129.035 141.313L130.938 139.661L133.947 143.127C133.908 142.588 134.014 142.051 134.265 141.516C134.507 140.972 134.878 140.483 135.376 140.051ZM140.403 134.305C140.068 134.596 139.696 134.736 139.289 134.724C138.883 134.695 138.542 134.522 138.267 134.205C137.991 133.888 137.872 133.531 137.908 133.134C137.946 132.72 138.133 132.367 138.468 132.076C138.803 131.785 139.174 131.654 139.58 131.682C139.988 131.694 140.329 131.859 140.605 132.176C140.88 132.493 140.999 132.859 140.961 133.273C140.924 133.67 140.738 134.014 140.403 134.305ZM142.12 134.388L148.656 141.919L146.753 143.571L140.217 136.04L142.12 134.388ZM153.987 137.507C153.262 138.136 152.472 138.544 151.616 138.73C150.753 138.907 149.898 138.847 149.052 138.549C148.214 138.243 147.461 137.705 146.793 136.935C146.124 136.164 145.702 135.339 145.526 134.459C145.359 133.571 145.432 132.713 145.746 131.884C146.052 131.047 146.567 130.313 147.292 129.684C148.017 129.055 148.816 128.648 149.688 128.463C150.552 128.269 151.408 128.32 152.254 128.618C153.11 128.909 153.872 129.439 154.541 130.209C155.209 130.979 155.623 131.812 155.781 132.708C155.948 133.596 155.873 134.463 155.559 135.308C155.245 136.137 154.721 136.87 153.987 137.507ZM152.547 135.848C152.892 135.549 153.143 135.189 153.3 134.766C153.459 134.326 153.483 133.86 153.373 133.368C153.264 132.875 153 132.388 152.583 131.908C151.962 131.192 151.296 130.809 150.585 130.759C149.875 130.692 149.248 130.894 148.704 131.366C148.161 131.838 147.872 132.43 147.839 133.142C147.807 133.838 148.101 134.543 148.723 135.259C149.344 135.975 150.001 136.374 150.692 136.457C151.385 136.523 152.004 136.32 152.547 135.848ZM156.747 121.501C157.644 120.722 158.617 120.378 159.666 120.469C160.706 120.552 161.667 121.1 162.548 122.115L166.383 126.533L164.479 128.185L160.869 124.025C160.35 123.427 159.803 123.099 159.229 123.042C158.646 122.975 158.097 123.166 157.58 123.614C157.055 124.07 156.78 124.595 156.755 125.189C156.731 125.766 156.979 126.353 157.498 126.951L161.108 131.111L159.205 132.763L152.669 125.232L154.572 123.58L155.386 124.518C155.356 123.972 155.458 123.439 155.69 122.919C155.924 122.383 156.276 121.91 156.747 121.501Z" fill="black"/>
<path d="M198.412 113.633C197.888 112.931 197.535 112.206 197.353 111.459C197.177 110.722 197.194 110.021 197.402 109.357C197.61 108.693 198.019 108.126 198.627 107.658L200.241 109.822C199.849 110.16 199.629 110.548 199.582 110.987C199.543 111.435 199.695 111.891 200.039 112.352C200.391 112.824 200.778 113.112 201.2 113.216C201.631 113.314 202.03 113.226 202.396 112.953C202.694 112.731 202.871 112.457 202.927 112.13C202.983 111.804 202.96 111.462 202.858 111.104C202.773 110.749 202.618 110.28 202.394 109.699C202.099 108.901 201.888 108.227 201.763 107.677C201.654 107.13 201.676 106.567 201.829 105.989C201.999 105.414 202.401 104.889 203.036 104.416C203.632 103.971 204.263 103.733 204.928 103.701C205.593 103.67 206.242 103.837 206.874 104.204C207.516 104.563 208.096 105.089 208.612 105.782C209.387 106.821 209.759 107.853 209.73 108.878C209.717 109.905 209.284 110.789 208.43 111.531L206.773 109.308C207.105 109.031 207.278 108.67 207.291 108.226C207.321 107.785 207.167 107.338 206.83 106.886C206.536 106.491 206.199 106.249 205.817 106.159C205.443 106.079 205.064 106.182 204.679 106.469C204.409 106.67 204.248 106.925 204.194 107.234C204.157 107.546 204.178 107.875 204.256 108.221C204.351 108.569 204.506 109.038 204.72 109.626C205.015 110.424 205.221 111.101 205.337 111.659C205.453 112.216 205.43 112.787 205.267 113.372C205.105 113.957 204.711 114.483 204.085 114.949C203.547 115.351 202.942 115.584 202.273 115.649C201.603 115.715 200.928 115.582 200.247 115.251C199.576 114.913 198.964 114.374 198.412 113.633ZM210.565 116.503L206.697 119.386C206.428 119.587 206.277 119.797 206.246 120.015C206.231 120.236 206.338 120.5 206.567 120.808L207.267 121.746L205.564 123.016L204.617 121.746C203.348 120.043 203.54 118.574 205.195 117.341L209.048 114.468L208.338 113.516L209.998 112.279L210.708 113.231L212.685 111.757L214.202 113.792L212.225 115.266L213.559 117.055L211.899 118.293L210.565 116.503ZM220.344 126.157L204.878 129.986L203.275 127.836L208.549 126.598L213.953 117.585L215.642 119.851L211.596 126.078L218.741 124.007L220.344 126.157ZM225.346 127.266L214.667 135.227L213.161 133.206L223.84 125.245L225.346 127.266ZM225.866 141.546C225.578 141.761 225.303 141.935 225.044 142.069L220.687 136.224C220.145 136.703 219.844 137.242 219.782 137.842C219.72 138.442 219.883 139.001 220.27 139.521C220.83 140.271 221.55 140.565 222.432 140.402L224.056 142.581C223.114 142.924 222.149 142.955 221.161 142.673C220.183 142.385 219.339 141.764 218.629 140.812C218.055 140.042 217.707 139.224 217.585 138.357C217.479 137.493 217.61 136.655 217.977 135.842C218.351 135.039 218.947 134.333 219.765 133.723C220.593 133.106 221.445 132.733 222.321 132.604C223.197 132.474 224.03 132.587 224.818 132.942C225.607 133.297 226.295 133.869 226.883 134.658C227.45 135.418 227.792 136.219 227.91 137.059C228.034 137.909 227.916 138.723 227.553 139.502C227.208 140.284 226.645 140.965 225.866 141.546ZM224.884 139.023C225.396 138.626 225.67 138.13 225.705 137.535C225.75 136.933 225.575 136.367 225.181 135.838C224.808 135.337 224.338 135.029 223.772 134.912C223.223 134.798 222.65 134.903 222.054 135.227L224.884 139.023Z" fill="black"/>
<path d="M177.321 185.356L181.376 184.519L181.78 186.476L175.257 187.822L172.719 175.517L175.187 175.008L177.321 185.356ZM187.718 185.417C186.777 185.611 185.889 185.579 185.052 185.323C184.212 185.055 183.496 184.584 182.904 183.91C182.323 183.233 181.93 182.396 181.724 181.397C181.518 180.398 181.553 179.471 181.831 178.618C182.12 177.762 182.604 177.049 183.283 176.48C183.96 175.9 184.768 175.512 185.708 175.318C186.648 175.124 187.544 175.16 188.395 175.426C189.244 175.679 189.965 176.143 190.557 176.818C191.161 177.489 191.566 178.325 191.772 179.324C191.978 180.323 191.931 181.252 191.63 182.11C191.341 182.966 190.853 183.686 190.164 184.269C189.485 184.838 188.67 185.22 187.718 185.417ZM187.274 183.266C187.721 183.174 188.116 182.982 188.46 182.69C188.814 182.385 189.063 181.99 189.209 181.507C189.354 181.023 189.362 180.47 189.234 179.847C189.042 178.919 188.649 178.259 188.053 177.867C187.467 177.461 186.822 177.331 186.117 177.476C185.411 177.622 184.87 177.997 184.492 178.602C184.124 179.192 184.036 179.952 184.227 180.88C184.419 181.809 184.796 182.478 185.358 182.889C185.93 183.286 186.569 183.411 187.274 183.266ZM198.193 180.719L199.116 172.718L201.742 172.176L200.143 182.688L197.146 183.306L191.535 174.282L194.18 173.736L198.193 180.719ZM213.171 174.689C213.244 175.042 213.286 175.364 213.297 175.656L206.157 177.128C206.362 177.821 206.722 178.323 207.24 178.633C207.757 178.943 208.333 179.032 208.967 178.901C209.884 178.712 210.455 178.184 210.681 177.317L213.343 176.767C213.254 177.766 212.874 178.653 212.201 179.429C211.525 180.193 210.606 180.695 209.442 180.935C208.502 181.129 207.613 181.098 206.776 180.842C205.949 180.572 205.244 180.098 204.664 179.421C204.095 178.742 203.707 177.903 203.501 176.904C203.293 175.894 203.315 174.964 203.569 174.115C203.823 173.266 204.278 172.56 204.933 171.996C205.589 171.432 206.398 171.05 207.362 170.852C208.291 170.66 209.16 170.689 209.971 170.938C210.794 171.185 211.482 171.638 212.034 172.296C212.596 172.939 212.975 173.737 213.171 174.689ZM210.47 174.511C210.327 173.879 209.993 173.421 209.469 173.137C208.943 172.841 208.356 172.76 207.71 172.893C207.099 173.02 206.62 173.314 206.275 173.778C205.939 174.227 205.791 174.79 205.833 175.468L210.47 174.511Z" fill="white"/>
<path d="M44.163 281.103C44.8824 281.069 45.5301 281.28 46.1061 281.736C46.6821 282.192 47.0555 282.782 47.2262 283.506C47.3804 284.16 47.3531 284.777 47.1445 285.356C46.9448 285.921 46.5743 286.415 46.033 286.839C45.4917 287.262 44.8065 287.572 43.9772 287.767L38.7037 289.011L35.821 276.782L40.8667 275.592C41.696 275.397 42.4401 275.363 43.0991 275.491C43.7698 275.617 44.3134 275.883 44.73 276.291C45.1582 276.695 45.4439 277.201 45.5871 277.808C45.7551 278.521 45.7028 279.162 45.4302 279.732C45.1693 280.299 44.747 280.756 44.163 281.103ZM39.4632 281.249L41.7058 280.721C42.2897 280.583 42.7091 280.348 42.9639 280.017C43.2159 279.674 43.2841 279.257 43.1685 278.767C43.0529 278.276 42.8057 277.934 42.427 277.74C42.0483 277.545 41.567 277.517 40.983 277.655L38.7405 278.183L39.4632 281.249ZM43.156 285.853C43.7517 285.712 44.18 285.463 44.4409 285.106C44.7136 284.746 44.7893 284.309 44.6682 283.795C44.5443 283.269 44.2727 282.902 43.8535 282.692C43.4315 282.471 42.9227 282.431 42.327 282.571L39.9093 283.141L40.6857 286.435L43.156 285.853ZM57.7907 279.167C57.8733 279.517 57.9243 279.838 57.9436 280.129L50.8481 281.802C51.0717 282.489 51.4464 282.98 51.9722 283.275C52.4979 283.57 53.0762 283.644 53.7069 283.495C54.6179 283.28 55.1739 282.736 55.3749 281.863L58.0204 281.239C57.9603 282.24 57.6048 283.137 56.9537 283.932C56.2999 284.715 55.3948 285.242 54.2385 285.515C53.3041 285.735 52.415 285.729 51.5711 285.496C50.7362 285.249 50.019 284.796 49.4196 284.136C48.8318 283.473 48.4209 282.645 48.1869 281.652C47.9501 280.648 47.9466 279.718 48.1764 278.862C48.4063 278.007 48.8409 277.288 49.4804 276.706C50.1198 276.123 50.9184 275.719 51.8762 275.494C52.7989 275.276 53.6691 275.281 54.4869 275.507C55.3163 275.731 56.0164 276.164 56.5869 276.806C57.1664 277.434 57.5677 278.221 57.7907 279.167ZM55.0851 279.065C54.9248 278.437 54.5786 277.988 54.0467 277.719C53.512 277.438 52.9235 277.373 52.2811 277.525C51.6737 277.668 51.2038 277.976 50.8715 278.449C50.548 278.907 50.4167 279.475 50.4774 280.151L55.0851 279.065ZM58.9916 279.068C58.7603 278.087 58.7479 277.172 58.9544 276.322C59.1725 275.469 59.5663 274.76 60.1357 274.194C60.7168 273.625 61.4219 273.243 62.2512 273.048C62.9753 272.877 63.6405 272.875 64.2466 273.04C64.8644 273.202 65.3891 273.467 65.8208 273.834L65.4945 272.45L67.9648 271.867L70.2528 281.573L67.7825 282.156L67.448 280.737C67.24 281.267 66.8915 281.749 66.4024 282.185C65.9223 282.607 65.3202 282.903 64.596 283.073C63.7784 283.266 62.9814 283.232 62.2048 282.971C61.4399 282.708 60.7695 282.243 60.1934 281.578C59.6262 280.898 59.2256 280.061 58.9916 279.068ZM66.6385 277.303C66.4981 276.707 66.2615 276.227 65.9288 275.861C65.5933 275.484 65.2009 275.231 64.7514 275.103C64.2993 274.963 63.8454 274.947 63.3899 275.054C62.9344 275.162 62.5401 275.372 62.2069 275.684C61.8738 275.997 61.6356 276.399 61.4921 276.889C61.3577 277.364 61.3593 277.894 61.4969 278.478C61.6346 279.062 61.8725 279.548 62.2108 279.937C62.5579 280.311 62.9517 280.57 63.3922 280.713C63.8444 280.853 64.2924 280.87 64.7363 280.766C65.1918 280.658 65.5919 280.447 65.9367 280.131C66.2788 279.804 66.5171 279.403 66.6515 278.927C66.7833 278.44 66.7789 277.898 66.6385 277.303ZM79.5232 269.143L81.8112 278.849L79.3409 279.431L79.0518 278.205C78.8356 278.7 78.4994 279.13 78.0433 279.497C77.5961 279.849 77.0747 280.095 76.4791 280.235C75.7199 280.414 75.0111 280.415 74.3528 280.237C73.6917 280.048 73.1188 279.683 72.6342 279.144C72.1585 278.591 71.8187 277.882 71.615 277.017L70.2727 271.323L72.7255 270.745L73.9852 276.089C74.1669 276.86 74.5 277.41 74.9846 277.739C75.4664 278.057 76.0401 278.138 76.7059 277.981C77.3833 277.821 77.8666 277.492 78.1556 276.992C78.442 276.481 78.4943 275.84 78.3125 275.069L77.0529 269.725L79.5232 269.143ZM85.2739 269.914L86.3808 274.609C86.4578 274.936 86.5902 275.158 86.7778 275.274C86.9744 275.375 87.2596 275.382 87.6333 275.294L88.7721 275.026L89.2594 277.093L87.7177 277.456C85.6504 277.944 84.3799 277.183 83.9063 275.174L82.8036 270.496L81.6473 270.769L81.1724 268.754L82.3287 268.481L81.7629 266.081L84.2332 265.499L84.799 267.899L86.9714 267.387L87.4464 269.402L85.2739 269.914ZM98.0211 264.782L95.3819 280.495L92.7714 281.11L93.7339 275.779L87.6143 267.235L90.3649 266.587L94.4686 272.777L95.4106 265.398L98.0211 264.782Z" fill="white"/>
<path d="M198.629 44.2599C199.451 43.3366 200.391 42.6954 201.45 42.3363C202.525 41.9762 203.601 41.9136 204.677 42.1485C205.77 42.3823 206.765 42.8982 207.661 43.696C208.71 44.6294 209.39 45.716 209.7 46.9559C210.01 48.1958 209.899 49.4305 209.367 50.6599L207.202 48.7332C207.386 48.0935 207.381 47.4861 207.186 46.911C207 46.3439 206.651 45.8329 206.14 45.3782C205.593 44.8915 204.989 44.5867 204.327 44.4637C203.683 44.3398 203.032 44.4031 202.375 44.6539C201.727 44.9126 201.124 45.3557 200.566 45.9831C200.015 46.6016 199.645 47.2522 199.455 47.9347C199.282 48.6162 199.291 49.2744 199.481 49.9094C199.688 50.5433 200.065 51.1036 200.611 51.5902C201.122 52.045 201.67 52.3318 202.255 52.4508C202.857 52.5687 203.465 52.4993 204.079 52.2426L206.244 54.1693C205.076 54.8492 203.859 55.107 202.592 54.9428C201.341 54.7776 200.187 54.2243 199.129 53.2829C198.233 52.4851 197.601 51.5615 197.234 50.5119C196.884 49.4613 196.821 48.3855 197.046 47.2844C197.28 46.1914 197.808 45.1832 198.629 44.2599ZM208.419 61.6232C207.702 60.985 207.196 60.2537 206.902 59.4294C206.615 58.5961 206.565 57.7405 206.752 56.8627C206.948 55.9928 207.385 55.1769 208.063 54.415C208.741 53.653 209.505 53.1283 210.356 52.8409C211.215 52.5614 212.075 52.524 212.937 52.7289C213.807 52.9247 214.601 53.3418 215.318 53.98C216.035 54.6182 216.541 55.358 216.837 56.1992C217.14 57.0315 217.198 57.8866 217.011 58.7645C216.834 59.6503 216.405 60.4742 215.727 61.2361C215.049 61.998 214.276 62.5148 213.408 62.7863C212.549 63.0658 211.68 63.1036 210.801 62.8998C209.939 62.695 209.145 62.2694 208.419 61.6232ZM209.879 59.9828C210.22 60.286 210.61 60.4885 211.049 60.5904C211.505 60.6914 211.971 60.6558 212.445 60.4837C212.92 60.3116 213.368 59.988 213.791 59.5129C214.421 58.8047 214.716 58.0949 214.674 57.3833C214.65 56.6707 214.369 56.0751 213.831 55.5965C213.293 55.1178 212.669 54.9076 211.958 54.966C211.265 55.0234 210.603 55.4061 209.972 56.1143C209.342 56.8224 209.03 57.5248 209.037 58.2214C209.06 58.917 209.341 59.5041 209.879 59.9828ZM229.77 66.8661C230.684 67.6799 231.168 68.6164 231.221 69.6758C231.291 70.7342 230.879 71.7653 229.986 72.7693L226.096 77.1392L224.214 75.4639L227.876 71.3494C228.394 70.7667 228.641 70.1914 228.617 69.6234C228.6 69.0463 228.337 68.5305 227.826 68.0757C227.315 67.621 226.767 67.4149 226.183 67.4574C225.616 67.4989 225.073 67.8109 224.555 68.3936L220.893 72.5081L219.01 70.8327L222.672 66.7182C223.191 66.1356 223.438 65.5602 223.413 64.9922C223.397 64.4152 223.133 63.8993 222.622 63.4446C222.102 62.9818 221.55 62.7717 220.966 62.8142C220.399 62.8557 219.856 63.1678 219.338 63.7505L215.676 67.8649L213.793 66.1896L220.423 58.7405L222.305 60.4159L221.504 61.3167C222.025 61.2184 222.554 61.2471 223.09 61.4029C223.635 61.5667 224.136 61.852 224.593 62.2589C225.176 62.7774 225.584 63.3657 225.818 64.0235C226.059 64.6724 226.102 65.3371 225.946 66.0177C226.571 65.8028 227.228 65.7689 227.917 65.9158C228.614 66.0707 229.232 66.3874 229.77 66.8661ZM243.859 79.4056C244.773 80.2194 245.257 81.1559 245.31 82.2153C245.38 83.2736 244.969 84.3048 244.075 85.3088L240.186 89.6787L238.303 88.0034L241.965 83.8889C242.484 83.3062 242.731 82.7309 242.706 82.1628C242.69 81.5858 242.426 81.0699 241.915 80.6152C241.404 80.1605 240.857 79.9543 240.273 79.9968C239.706 80.0383 239.163 80.3504 238.644 80.9331L234.982 85.0476L233.1 83.3722L236.762 79.2577C237.28 78.6751 237.527 78.0997 237.503 77.5317C237.486 76.9547 237.222 76.4388 236.711 75.984C236.191 75.5213 235.64 75.3112 235.056 75.3537C234.488 75.3952 233.946 75.7073 233.427 76.2899L229.765 80.4044L227.883 78.7291L234.512 71.28L236.395 72.9553L235.593 73.8562C236.114 73.7579 236.643 73.7866 237.179 73.9424C237.724 74.1062 238.225 74.3915 238.682 74.7984C239.265 75.3169 239.673 75.9051 239.907 76.563C240.149 77.2119 240.192 77.8766 240.036 78.5572C240.661 78.3423 241.317 78.3083 242.006 78.4553C242.703 78.6101 243.321 78.9269 243.859 79.4056ZM255.634 90.0781L249.004 97.5272L247.109 95.8399L247.946 94.8987C247.417 95.006 246.871 94.9782 246.309 94.8154C245.764 94.6517 245.263 94.3663 244.806 93.9595C244.224 93.4409 243.816 92.8612 243.583 92.2202C243.358 91.5704 243.327 90.8922 243.49 90.1857C243.67 89.4783 244.055 88.7929 244.645 88.1296L248.535 83.7596L250.417 85.435L246.767 89.536C246.241 90.1276 245.982 90.7164 245.99 91.3024C246.007 91.8794 246.271 92.3953 246.782 92.85C247.301 93.3128 247.849 93.5189 248.424 93.4684C249.007 93.409 249.562 93.0834 250.088 92.4918L253.738 88.3908L255.634 90.0781ZM261.715 95.2974C262.602 96.0872 263.068 97.0078 263.112 98.0592C263.165 99.1016 262.744 100.125 261.85 101.129L257.961 105.499L256.079 103.823L259.741 99.7089C260.267 99.1173 260.522 98.5329 260.506 97.9559C260.497 97.37 260.237 96.8496 259.726 96.3949C259.206 95.9321 258.65 95.7265 258.058 95.778C257.483 95.8284 256.933 96.1495 256.406 96.7411L252.744 100.856L250.862 99.1802L257.491 91.7311L259.374 93.4065L258.548 94.3343C259.086 94.235 259.628 94.2672 260.173 94.4309C260.735 94.5937 261.249 94.8825 261.715 95.2974ZM268.125 99.605C267.794 99.3098 267.608 98.9594 267.567 98.5538C267.543 98.1472 267.671 97.7871 267.95 97.4733C268.23 97.1596 268.569 96.9954 268.967 96.9806C269.383 96.965 269.756 97.1047 270.088 97.3999C270.42 97.6951 270.597 98.046 270.621 98.4526C270.662 98.8582 270.542 99.2179 270.263 99.5316C269.984 99.8453 269.636 100.01 269.221 100.026C268.822 100.04 268.457 99.9002 268.125 99.605ZM268.263 101.318L261.634 108.767L259.751 107.092L266.381 99.6428L268.263 101.318ZM270.939 106.47L267.732 110.074C267.508 110.325 267.403 110.56 267.416 110.781C267.446 111 267.604 111.237 267.891 111.493L268.765 112.27L267.353 113.857L266.169 112.804C264.583 111.392 264.476 109.915 265.848 108.373L269.043 104.783L268.155 103.993L269.532 102.447L270.419 103.237L272.059 101.395L273.954 103.082L272.315 104.924L273.982 106.408L272.606 107.954L270.939 106.47ZM282.463 113.955L268.086 120.823L266.082 119.04L270.999 116.765L274.476 106.847L276.587 108.726L273.878 115.641L280.459 112.172L282.463 113.955Z" fill="white"/>
<path d="M190.928 31.2067C191.413 30.6619 191.661 29.9468 191.619 29.2187C191.577 28.4906 191.247 27.8091 190.702 27.3242C190.157 26.8393 189.442 26.5907 188.714 26.6331C187.986 26.6754 187.304 27.0053 186.819 27.5501C186.335 28.0949 186.086 28.81 186.128 29.5381C186.171 30.2663 186.501 30.9477 187.045 31.4326C187.59 31.9175 188.305 32.1661 189.033 32.1238C189.762 32.0814 190.443 31.7515 190.928 31.2067ZM187.566 28.2149C187.719 28.0433 187.904 27.9034 188.111 27.8033C188.318 27.7031 188.543 27.6447 188.772 27.6314C189.001 27.618 189.231 27.65 189.448 27.7254C189.665 27.8009 189.865 27.9184 190.037 28.0712C190.209 28.224 190.349 28.4091 190.449 28.6159C190.549 28.8228 190.607 29.0473 190.621 29.2768C190.634 29.5062 190.602 29.736 190.527 29.9531C190.451 30.1701 190.334 30.3702 190.181 30.5419C189.872 30.8886 189.439 31.0985 188.975 31.1255C188.512 31.1524 188.057 30.9942 187.71 30.6856C187.363 30.3771 187.154 29.9434 187.127 29.4801C187.1 29.0167 187.258 28.5616 187.566 28.2149ZM183.766 29.8527L186.891 32.6337C186.562 32.7562 186.248 32.9261 185.958 33.1427L183.101 30.5997C183.002 30.5115 182.872 30.4663 182.74 30.474C182.607 30.4817 182.483 30.5417 182.395 30.6407L182.063 31.0142C181.225 31.9554 181.146 33.6975 182.428 35.2612C182.041 35.2115 181.646 35.2522 181.276 35.3799C180.08 33.5506 180.261 31.5349 181.316 30.3494L181.648 29.9759C181.913 29.6787 182.285 29.4988 182.682 29.4757C183.079 29.4526 183.469 29.5882 183.766 29.8527ZM187.784 33.4288C188.566 33.3083 189.395 33.5242 190.033 34.092C190.481 34.4893 190.787 35.0224 190.904 35.6098C191.021 36.1971 190.942 36.8066 190.68 37.3451C190.446 37.8257 190.077 38.2277 189.619 38.5022C189.16 38.7767 188.632 38.9118 188.098 38.891C187.564 38.8702 187.047 38.6944 186.611 38.385C186.175 38.0756 185.839 37.6461 185.643 37.1487C185.493 36.765 185.431 36.3525 185.462 35.9417C185.493 35.5308 185.616 35.1321 185.821 34.7751C186.027 34.418 186.31 34.1117 186.65 33.8788C186.99 33.6459 187.377 33.4917 187.784 33.4288ZM187.523 34.5355C187.312 34.6252 187.12 34.7557 186.958 34.9196C186.797 35.0835 186.67 35.2776 186.584 35.4907C186.409 35.9211 186.413 36.4031 186.594 36.8306C186.776 37.2582 187.119 37.5962 187.55 37.7704C187.98 37.9446 188.462 37.9407 188.89 37.7595C189.317 37.5783 189.655 37.2346 189.83 36.804C190.004 36.3734 190 35.8913 189.818 35.4637C189.637 35.0361 189.293 34.698 188.863 34.5238C188.432 34.3496 187.95 34.3536 187.523 34.5348M189.77 42.9391C189.855 42.5577 189.849 42.1616 189.753 41.7827C191.455 42.873 193.178 42.5921 194.015 41.6517L194.347 41.2782C194.435 41.1791 194.48 41.0491 194.473 40.9167C194.465 40.7843 194.405 40.6604 194.306 40.5722L191.449 38.0292C191.628 37.722 191.762 37.3905 191.847 37.0449L194.971 39.8253C195.268 40.0898 195.448 40.4615 195.471 40.8586C195.494 41.2558 195.359 41.6458 195.094 41.943L194.762 42.3165C193.707 43.502 191.725 43.914 189.77 42.9391ZM188.817 42.2077C188.772 41.8474 188.597 41.5158 188.326 41.2743L183.097 36.6205C182.95 36.489 182.779 36.3879 182.593 36.3229C182.407 36.2579 182.21 36.2304 182.013 36.2418C181.816 36.2533 181.624 36.3035 181.446 36.3896C181.269 36.4757 181.11 36.5961 180.98 36.7437L180.647 37.1172C179.337 38.5895 179.377 41.3417 181.723 43.4293C184.068 45.5169 186.807 45.2379 188.117 43.7656L188.45 43.3921C188.749 43.0559 188.869 42.6225 188.818 42.2069M181.727 37.4085C181.815 37.3095 181.939 37.2495 182.071 37.2418C182.203 37.2341 182.333 37.2793 182.433 37.3674L187.661 42.0213C187.761 42.1095 187.82 42.2334 187.828 42.3658C187.836 42.4981 187.791 42.6282 187.703 42.7272L187.37 43.1007C186.414 44.1749 184.306 44.3896 182.388 42.6823C180.469 40.975 180.438 38.8562 181.394 37.782L181.727 37.4085ZM196.678 32.6429C197.223 33.1278 197.553 33.8093 197.595 34.5374C197.637 35.2655 197.389 35.9806 196.904 36.5254C196.419 37.0702 195.737 37.4001 195.009 37.4425C194.281 37.4848 193.566 37.2362 193.021 36.7513C192.476 36.2664 192.147 35.585 192.104 34.8569C192.062 34.1287 192.31 33.4136 192.795 32.8688C193.28 32.324 193.962 31.9941 194.69 31.9518C195.418 31.9094 196.133 32.158 196.678 32.6429ZM196.013 33.3899C195.666 33.0813 195.211 32.9231 194.748 32.9501C194.285 32.977 193.851 33.187 193.542 33.5337C193.234 33.8804 193.076 34.3354 193.103 34.7988C193.129 35.2621 193.339 35.6958 193.686 36.0044C194.033 36.3129 194.488 36.4711 194.951 36.4442C195.415 36.4172 195.848 36.2073 196.157 35.8606C196.465 35.5139 196.624 35.0588 196.597 34.5955C196.57 34.1321 196.36 33.6985 196.013 33.3899Z" fill="white"/>
<g clip-path="url(#clip0_7_1181)">
<path d="M98.0306 184.424C99.4979 184.665 100.832 183.506 103.502 181.189L103.933 180.815C106.603 178.497 107.938 177.339 107.905 175.852M98.0306 184.424C96.5627 184.182 95.6704 182.656 93.8842 179.605C92.6148 177.436 91.9793 176.351 92.165 175.223M107.905 175.852C107.872 174.365 106.487 173.267 103.717 171.069C101.748 169.508 100.763 168.727 99.6201 168.752M99.6201 168.752C98.478 168.777 97.528 169.601 95.6298 171.249L95.1982 171.624C93.3001 173.271 92.3507 174.096 92.165 175.223" stroke="black" stroke-width="1.5"/>
<path d="M93.6205 172.993L93.1016 172.396C92.6887 171.92 92.4816 171.3 92.526 170.671C92.5704 170.043 92.8625 169.458 93.3382 169.045C93.8139 168.632 94.4341 168.425 95.0624 168.47C95.6907 168.514 96.2757 168.806 96.6886 169.282L97.2076 169.88" stroke="black" stroke-width="1.5" stroke-linecap="round"/>
</g>
<path d="M39.8204 170.741C39.554 170.978 39.2661 171.19 38.9605 171.374C37.23 172.406 33.8411 172.873 32.671 171.262C31.205 169.223 34.3748 166.471 35.417 165.566C36.8065 164.36 36.9318 161.624 37.1045 157.832C37.1504 156.701 37.2103 155.469 37.2966 154.15C37.3117 153.949 37.39 153.757 37.5205 153.603C37.651 153.449 37.8268 153.34 38.023 153.291C38.8562 153.04 39.7351 152.977 40.5956 153.108C41.456 153.24 42.2763 153.562 42.9965 154.05C43.6077 154.509 44.1096 155.097 44.466 155.773C44.8224 156.449 45.0243 157.196 45.0573 157.959C45.2585 159.804 45.9836 161.553 47.147 162.998C47.3313 163.174 47.4386 163.415 47.4454 163.67C47.4522 163.924 47.3579 164.171 47.1832 164.356C47.0085 164.542 46.7676 164.65 46.5131 164.658C46.2586 164.666 46.0113 164.573 45.8252 164.399C44.7784 163.562 43.639 162.848 42.4294 162.271C42.0417 163.732 41.8151 165.231 41.7537 166.741C41.7129 167.503 41.521 168.249 41.1891 168.935C40.8572 169.622 40.3919 170.236 39.8204 170.741ZM39.1648 155.016L39.0145 157.913C38.8282 162.186 38.6853 165.267 36.6734 167.014C34.0825 169.263 34.2126 170.114 34.2117 170.128C34.3141 170.217 34.4398 170.274 34.5734 170.296C35.7386 170.475 36.9304 170.266 37.9646 169.7C38.5154 169.374 38.9736 168.913 39.2957 168.36C39.6178 167.808 39.7929 167.182 39.8045 166.542C39.9822 164.218 40.3598 161.276 41.2066 160.541C41.4743 160.308 41.9882 159.862 43.7023 160.696C43.4025 159.858 43.2152 158.984 43.1455 158.096C43.1351 157.607 43.0135 157.127 42.79 156.692C42.5664 156.258 42.2468 155.879 41.8554 155.587C41.0652 155.058 40.1016 154.853 39.1648 155.016Z" fill="white"/>
<path d="M193.724 88.878C193.838 88.8901 193.948 88.9256 194.048 88.9824C194.147 89.0391 194.234 89.1159 194.303 89.2078L195.137 90.3266C195.231 90.4528 195.371 90.5365 195.527 90.5592C195.683 90.5819 195.841 90.5418 195.968 90.4476C196.094 90.3535 196.178 90.2131 196.2 90.0572C196.223 89.9014 196.183 89.743 196.089 89.6167L195.255 88.4979C195.088 88.2748 194.877 88.0885 194.636 87.9507C194.394 87.8128 194.126 87.7265 193.849 87.6972L188.819 87.1631C188.637 87.1285 188.451 87.1173 188.266 87.1308C187.87 87.1523 187.488 87.2904 187.17 87.5277L184.475 89.5368C183.819 90.0263 183.384 90.7565 183.266 91.5668C183.147 92.3771 183.356 93.2011 183.846 93.8576L185.265 95.7615C185.508 96.0866 185.812 96.3607 186.16 96.5682C186.508 96.7758 186.894 96.9127 187.295 96.9712C187.696 97.0296 188.105 97.0085 188.498 96.909C188.891 96.8094 189.261 96.6335 189.586 96.3911L191.49 94.9714L192.626 96.4946L190.722 97.9143C190.065 98.4037 189.63 99.134 189.512 99.9443C189.394 100.755 189.603 101.579 190.092 102.235L191.512 104.139C191.754 104.464 192.058 104.738 192.407 104.946C192.755 105.153 193.141 105.29 193.542 105.349C193.943 105.407 194.352 105.386 194.745 105.286C195.138 105.187 195.508 105.011 195.833 104.769L198.527 102.76C198.845 102.522 199.086 102.196 199.22 101.822C199.286 101.649 199.328 101.467 199.347 101.283L200.271 96.3092C200.322 96.0355 200.315 95.7543 200.252 95.4832C200.189 95.2121 200.071 94.957 199.904 94.7338L199.07 93.615C198.976 93.4888 198.836 93.4051 198.68 93.3824C198.524 93.3597 198.365 93.3998 198.239 93.494C198.113 93.5881 198.029 93.7285 198.007 93.8844C197.984 94.0402 198.024 94.1987 198.118 94.3249L198.952 95.4437C199.091 95.6295 199.146 95.8649 199.103 96.0926L198.52 99.2341L196.379 96.3625C196.064 95.9411 195.606 95.6502 195.09 95.5456C194.575 95.4409 194.04 95.5299 193.586 95.7954L192.434 94.2513C192.818 93.892 193.056 93.4039 193.103 92.8801C193.15 92.3563 193.002 91.8337 192.687 91.4122L190.546 88.5407L193.724 88.878ZM191.432 98.8663L194.097 96.8787C194.299 96.7281 194.553 96.6639 194.802 96.7002C195.051 96.7365 195.276 96.8704 195.427 97.0724L197.982 100.5C198.116 100.679 198.182 100.9 198.169 101.124L198.138 101.293C198.13 101.333 198.12 101.372 198.107 101.409C198.045 101.571 197.938 101.718 197.788 101.829L195.123 103.817C194.923 103.966 194.695 104.074 194.453 104.135C194.212 104.197 193.96 104.21 193.713 104.174C193.466 104.138 193.229 104.053 193.014 103.926C192.8 103.798 192.613 103.629 192.464 103.429L191.044 101.525C190.743 101.121 190.615 100.614 190.687 100.115C190.76 99.6168 191.028 99.1675 191.432 98.8663ZM191.542 93.4515L188.876 95.4391C188.472 95.7403 187.965 95.8687 187.466 95.7961C186.968 95.7234 186.518 95.4557 186.217 95.0517L184.798 93.1477C184.496 92.7437 184.368 92.2367 184.441 91.738C184.513 91.2394 184.781 90.79 185.185 90.4888L187.851 88.5012C188 88.3899 188.171 88.329 188.344 88.3158C188.384 88.3142 188.424 88.3153 188.464 88.3194L188.635 88.3375C188.845 88.3869 189.041 88.508 189.18 88.6949L191.735 92.1221C191.886 92.3241 191.95 92.5776 191.914 92.8269C191.878 93.0762 191.744 93.3009 191.542 93.4515Z" fill="black"/>
<path fill-rule="evenodd" clip-rule="evenodd" d="M163.727 194.337L163.716 194.341L163.66 194.385L163.644 194.392L163.631 194.391L163.562 194.372C163.552 194.372 163.545 194.375 163.542 194.382L163.54 194.391L163.603 194.77L163.611 194.786L163.622 194.796L163.727 194.842L163.74 194.843L163.75 194.837L163.828 194.753L163.836 194.737L163.836 194.721L163.744 194.35C163.74 194.341 163.734 194.337 163.727 194.337ZM163.938 194.19L163.926 194.195L163.781 194.309L163.774 194.32L163.774 194.33L163.867 194.704L163.874 194.714L163.882 194.719L164.075 194.764C164.087 194.764 164.095 194.76 164.099 194.751L164.1 194.738L163.959 194.206C163.954 194.195 163.947 194.19 163.938 194.19ZM163.311 194.321C163.307 194.32 163.302 194.32 163.298 194.322C163.293 194.324 163.29 194.327 163.288 194.332L163.286 194.345L163.367 194.89C163.37 194.9 163.376 194.906 163.386 194.908L163.399 194.903L163.558 194.785L163.566 194.776L163.566 194.766L163.504 194.386L163.5 194.376L163.489 194.369L163.311 194.321Z" fill="white"/>
<path fill-rule="evenodd" clip-rule="evenodd" d="M164.474 191.178C164.309 191.362 164.123 191.525 163.903 191.635C163.285 191.945 162.516 191.831 161.856 191.785C157.427 191.471 154.243 190.205 152.87 187.619C151.775 185.554 151.938 183.226 153.013 181.577C154.009 180.051 155.768 179.152 157.85 179.581C158.751 177.654 160.523 176.78 162.342 176.894C164.305 177.016 166.27 178.276 167.272 180.388C167.468 180.802 167.613 181.235 167.707 181.687C167.955 181.756 168.195 181.853 168.425 181.978C169.617 182.627 170.46 183.974 170.47 185.552C170.484 187.566 168.971 189.295 166.606 190.794C166.201 191.052 165.763 191.357 165.266 191.372C164.989 191.379 164.723 191.292 164.474 191.178ZM154.453 186.78C153.652 185.269 153.807 183.639 154.514 182.556C155.191 181.516 156.394 180.933 157.967 181.465C158.516 181.65 159.113 181.35 159.292 180.8C159.806 179.221 160.991 178.604 162.23 178.681C163.521 178.762 164.921 179.611 165.653 181.156C165.742 181.341 165.816 181.534 165.874 181.736C165.561 181.844 165.266 181.997 164.999 182.192C163.867 181.468 162.583 181.545 161.567 182.177C160.415 182.893 159.651 184.287 159.731 185.864C159.815 187.479 160.869 188.852 162.548 190.035C162.365 190.027 162.175 190.012 161.983 189.998C157.686 189.694 155.364 188.498 154.453 186.78ZM161.521 185.772C161.471 184.822 161.934 184.058 162.513 183.697C163.048 183.366 163.713 183.344 164.348 183.95C164.442 184.04 164.554 184.11 164.675 184.157C164.797 184.204 164.927 184.226 165.058 184.222C165.189 184.219 165.317 184.189 165.436 184.135C165.555 184.082 165.663 184.005 165.752 183.909C166.351 183.267 167.017 183.251 167.569 183.551C168.168 183.877 168.673 184.614 168.679 185.564C168.686 186.596 167.901 187.854 165.647 189.281C165.504 189.372 165.363 189.467 165.213 189.547C165.058 189.475 164.912 189.389 164.763 189.308C162.431 188.012 161.573 186.802 161.521 185.771L161.521 185.772Z" fill="white"/>
<path d="M61.543 225.347C61.1857 225.301 60.9004 225.139 60.6872 224.863C60.4739 224.586 60.3907 224.269 60.4376 223.912C60.4844 223.556 60.6457 223.27 60.9214 223.056C61.1981 222.844 61.5152 222.761 61.8725 222.807C62.2299 222.853 62.515 223.014 62.7277 223.291C62.9404 223.567 63.0239 223.884 62.978 224.242C62.9322 224.6 62.7706 224.885 62.4934 225.097C62.2162 225.309 61.8994 225.392 61.543 225.347ZM69.4896 226.378C69.1328 226.332 68.8478 226.17 68.6345 225.893C68.4213 225.617 68.3378 225.3 68.3841 224.943C68.4304 224.586 68.592 224.301 68.8688 224.087C69.1455 223.874 69.4623 223.791 69.8191 223.838C70.1759 223.884 70.4612 224.045 70.6751 224.321C70.8877 224.598 70.9709 224.915 70.9246 225.273C70.8783 225.629 70.717 225.914 70.4408 226.128C70.164 226.341 69.8469 226.424 69.4896 226.378ZM62.0498 211.967L63.6931 217.016L69.3118 217.744C69.4094 217.757 69.4993 217.744 69.5813 217.704C69.6639 217.665 69.7379 217.606 69.8033 217.526L72.5402 213.791C72.6207 213.68 72.6398 213.575 72.5975 213.476C72.5548 213.376 72.4685 213.318 72.3386 213.301L62.0498 211.967ZM61.7455 211.066L72.7711 212.496C73.1386 212.544 73.3958 212.73 73.5425 213.054C73.69 213.378 73.6597 213.689 73.4519 213.985L70.4597 218.082C70.3105 218.272 70.1303 218.413 69.9192 218.505C69.708 218.597 69.485 218.628 69.2502 218.597L63.2022 217.813L61.9284 219.568C61.8246 219.687 61.8034 219.828 61.865 219.99C61.9266 220.153 62.039 220.245 62.202 220.266L71.4188 221.462L71.309 222.309L62.0922 221.113C61.5982 221.049 61.2566 220.793 61.0673 220.345C60.878 219.897 60.9264 219.478 61.2123 219.088L62.7803 216.983L60.514 210.045L58.9829 209.847L59.0928 209L61.1607 209.268L61.7455 211.066Z" fill="black"/>
<path d="M205.11 241.663C205.227 241.537 205.282 241.383 205.275 241.203C205.268 241.022 205.201 240.873 205.074 240.756C204.948 240.639 204.794 240.584 204.614 240.591C204.433 240.598 204.285 240.665 204.168 240.792C204.051 240.918 203.996 241.072 204.003 241.252C204.01 241.433 204.076 241.581 204.203 241.698C204.329 241.815 204.483 241.87 204.663 241.863C204.844 241.856 204.993 241.789 205.11 241.663ZM199.194 245.272L202.023 242.214L201.412 241.648L198.582 244.707L199.194 245.272ZM204.673 253.462C203.327 252.773 201.986 252.097 200.649 251.434C199.312 250.771 198.088 249.925 196.976 248.897C196.211 248.189 195.808 247.32 195.768 246.29C195.728 245.26 196.062 244.362 196.77 243.598L199.882 240.233C199.778 239.647 199.776 239.065 199.876 238.488C199.976 237.912 200.23 237.402 200.639 236.96C200.716 236.878 200.812 236.834 200.929 236.83C201.046 236.825 201.146 236.861 201.228 236.937C201.25 236.958 201.269 236.982 201.284 237.009C201.299 237.037 201.314 237.062 201.329 237.085C201.445 237.327 201.579 237.558 201.73 237.779C201.882 238 202.037 238.217 202.197 238.432L205.646 238.297L206.55 237.32L209.758 240.287L208.799 242.389L211.18 246.427L209.058 248.721L207.835 247.59L205.571 250.037L206.795 251.168L204.673 253.462ZM204.485 252.438L205.617 251.214L204.394 250.082L207.789 246.412L209.012 247.544L210.144 246.32L207.871 242.458L208.753 240.492L206.596 238.497L206.03 239.109L201.909 239.27C201.705 239.081 201.521 238.887 201.356 238.687C201.191 238.487 201.046 238.268 200.921 238.029C200.729 238.4 200.637 238.789 200.643 239.197C200.65 239.604 200.728 240.001 200.876 240.386L197.382 244.164C196.835 244.755 196.577 245.453 196.608 246.258C196.639 247.062 196.951 247.738 197.542 248.285C198.541 249.21 199.645 249.975 200.853 250.582C202.061 251.188 203.272 251.807 204.485 252.438Z" fill="white"/>
<path d="M29.8236 291.582C29.716 291.607 29.6172 291.592 29.5273 291.536C29.4374 291.481 29.38 291.399 29.3552 291.291C29.3303 291.184 29.3452 291.085 29.3999 290.996C29.4546 290.907 29.5362 290.85 29.6449 290.824L32.2971 290.198L31.8021 288.099L29.1498 288.725C29.0422 288.75 28.9435 288.735 28.8537 288.68C28.7643 288.625 28.707 288.543 28.6816 288.435C28.6562 288.328 28.6711 288.229 28.7263 288.14C28.7815 288.051 28.8632 287.993 28.9713 287.968L31.6235 287.342L31.1285 285.243L28.4763 285.869C28.3687 285.894 28.27 285.879 28.1802 285.824C28.0908 285.769 28.0334 285.687 28.008 285.579C27.9826 285.472 27.9976 285.373 28.0528 285.284C28.108 285.195 28.1896 285.137 28.2977 285.112L30.95 284.486L30.4549 282.387L27.8027 283.013C27.6951 283.038 27.5963 283.023 27.5064 282.967C27.4172 282.912 27.3598 282.831 27.3344 282.723C27.3091 282.616 27.324 282.517 27.3792 282.428C27.4344 282.339 27.516 282.281 27.624 282.255L30.2762 281.629L29.7814 279.531L27.1291 280.157C27.0215 280.182 26.9228 280.167 26.8329 280.111C26.7435 280.056 26.6861 279.974 26.6609 279.867C26.6355 279.759 26.6504 279.661 26.7054 279.571C26.7605 279.481 26.8422 279.424 26.9504 279.399L29.7186 278.746C30.0672 278.664 30.386 278.712 30.675 278.891C30.9641 279.07 31.1497 279.333 31.232 279.682L33.5277 289.416C33.6099 289.765 33.5616 290.084 33.3829 290.373C33.2042 290.662 32.9404 290.847 32.5917 290.929L29.8236 291.582ZM22.2527 292.567L24.0365 292.147C24.134 292.124 24.2151 292.076 24.2798 292.004C24.3451 291.933 24.3857 291.844 24.4016 291.737L25.0909 285.763C25.1045 285.647 25.0793 285.54 25.0153 285.443C24.9513 285.345 24.8638 285.279 24.753 285.243L21.9572 284.361L20.6341 284.673L18.5277 286.71C18.4439 286.791 18.3952 286.89 18.3815 287.006C18.3683 287.122 18.3935 287.229 18.4571 287.327L21.7439 292.363C21.8053 292.452 21.8811 292.513 21.9714 292.548C22.0618 292.583 22.1557 292.59 22.2527 292.567ZM21.0957 292.779L17.8141 287.762C17.6427 287.514 17.5738 287.24 17.6076 286.94C17.6414 286.64 17.7706 286.383 17.9952 286.169L20.346 283.879L19.4869 280.236C19.45 280.079 19.4759 279.929 19.5647 279.786C19.6531 279.643 19.7754 279.553 19.9315 279.516L20.2808 279.434C20.4374 279.397 20.5875 279.423 20.7311 279.511C20.8747 279.6 20.965 279.723 21.0019 279.879L21.861 283.522L24.9866 284.521C25.2834 284.612 25.5139 284.785 25.6781 285.038C25.8423 285.291 25.903 285.566 25.8604 285.865L25.1666 291.82C25.1335 292.086 25.0317 292.318 24.8612 292.516C24.6907 292.714 24.4757 292.843 24.216 292.904L22.4322 293.325C22.1715 293.386 21.9208 293.367 21.68 293.266C21.4398 293.166 21.2449 293.003 21.0957 292.779Z" fill="white"/>
<g clip-path="url(#clip1_7_1181)">
<path d="M87.6241 321.731L90.9695 318.55M93.7149 316.315L97.0604 313.134M91.1343 312.024L91.9971 315.887M92.6874 318.978L93.5502 322.841M86.2436 315.55L90.6244 317.005M94.0601 317.86L98.4409 319.315M98.3919 313.648L99.341 317.897M94.968 323.741L98.6998 320.474M87.4966 322.976L92.6501 324.259M86.2926 321.217L85.2572 316.581M85.5984 314.477L89.7165 311.124M97.1879 311.889L92.0344 310.606" stroke="black" stroke-width="1.5" stroke-linecap="round" stroke-linejoin="round"/>
<path d="M91.1344 312.024C91.7745 311.881 92.1775 311.246 92.0345 310.606C91.8915 309.966 91.2568 309.563 90.6167 309.706C89.9766 309.849 89.5737 310.484 89.7166 311.124C89.8596 311.764 90.4943 312.167 91.1344 312.024Z" stroke="black" stroke-width="1.5" stroke-linecap="round" stroke-linejoin="round"/>
<path d="M94.068 325.159C94.7081 325.016 95.111 324.381 94.9681 323.741C94.8251 323.101 94.1904 322.698 93.5503 322.841C92.9102 322.984 92.5072 323.618 92.6502 324.259C92.7932 324.899 93.4279 325.302 94.068 325.159Z" stroke="black" stroke-width="1.5" stroke-linecap="round" stroke-linejoin="round"/>
<path d="M85.2572 316.581C85.8973 316.438 86.3003 315.804 86.1573 315.163C86.0143 314.523 85.3796 314.12 84.7395 314.263C84.0994 314.406 83.6965 315.041 83.8394 315.681C83.9824 316.321 84.6171 316.724 85.2572 316.581Z" stroke="black" stroke-width="1.5" stroke-linecap="round" stroke-linejoin="round"/>
<path d="M98.392 313.648C99.032 313.505 99.435 312.87 99.2921 312.23C99.1491 311.59 98.5143 311.187 97.8743 311.33C97.2342 311.473 96.8312 312.108 96.9742 312.748C97.1171 313.388 97.7519 313.791 98.392 313.648Z" stroke="black" stroke-width="1.5" stroke-linecap="round" stroke-linejoin="round"/>
<path d="M99.9449 320.601C100.585 320.458 100.988 319.824 100.845 319.183C100.702 318.543 100.067 318.14 99.4273 318.283C98.7872 318.426 98.3842 319.061 98.5272 319.701C98.6701 320.341 99.3049 320.744 99.9449 320.601Z" stroke="black" stroke-width="1.5" stroke-linecap="round" stroke-linejoin="round"/>
<path d="M86.8104 323.535C87.4505 323.392 87.8535 322.757 87.7105 322.117C87.5676 321.477 86.9328 321.074 86.2927 321.217C85.6527 321.36 85.2497 321.995 85.3926 322.635C85.5356 323.275 86.1704 323.678 86.8104 323.535Z" stroke="black" stroke-width="1.5" stroke-linecap="round" stroke-linejoin="round"/>
<path d="M91.954 315.694L93.6933 316.218L94.0816 317.956L92.7305 319.171L90.9911 318.647L90.6028 316.908L91.954 315.694Z" stroke="black" stroke-width="1.5" stroke-linecap="round" stroke-linejoin="round"/>
</g>
<defs>
<clipPath id="clip0_7_1181">
<rect width="19" height="19" fill="white" transform="translate(85.126 174.077) rotate(-40.96)"/>
</clipPath>
<clipPath id="clip1_7_1181">
<rect width="19" height="19" fill="white" transform="translate(81 310.231) rotate(-12.59)"/>
</clipPath>
</defs>
</svg>
